<mxfile host="Electron" modified="2023-11-02T19:44:25.218Z" agent="Mozilla/5.0 (Windows NT 10.0; Win64; x64) AppleWebKit/537.36 (KHTML, like Gecko) draw.io/22.0.3 Chrome/114.0.5735.289 Electron/25.8.4 Safari/537.36" etag="uXXvmkJixU_V8xXSF0LE" version="22.0.3" type="device">
  <diagram id="R2lEEEUBdFMjLlhIrx00" name="Page-1">
    <mxGraphModel dx="4142" dy="2746" grid="1" gridSize="10" guides="1" tooltips="1" connect="1" arrows="0" fold="1" page="1" pageScale="1" pageWidth="850" pageHeight="1100" math="0" shadow="0" extFonts="Permanent Marker^https://fonts.googleapis.com/css?family=Permanent+Marker">
      <root>
        <mxCell id="0" />
        <mxCell id="1" parent="0" />
        <mxCell id="SDGVXNkJ4wVJUg49SY7T-8" style="edgeStyle=none;shape=connector;rounded=0;orthogonalLoop=1;jettySize=auto;html=1;exitX=0.25;exitY=0;exitDx=0;exitDy=0;entryX=0.5;entryY=1;entryDx=0;entryDy=0;labelBackgroundColor=default;strokeColor=default;align=center;verticalAlign=middle;fontFamily=Helvetica;fontSize=11;fontColor=default;endArrow=none;endFill=0;" parent="1" source="SDGVXNkJ4wVJUg49SY7T-4" target="SDGVXNkJ4wVJUg49SY7T-7" edge="1">
          <mxGeometry relative="1" as="geometry" />
        </mxCell>
        <mxCell id="SDGVXNkJ4wVJUg49SY7T-10" style="edgeStyle=none;shape=connector;rounded=0;orthogonalLoop=1;jettySize=auto;html=1;exitX=0.5;exitY=0;exitDx=0;exitDy=0;entryX=0.5;entryY=1;entryDx=0;entryDy=0;labelBackgroundColor=default;strokeColor=default;align=center;verticalAlign=middle;fontFamily=Helvetica;fontSize=11;fontColor=default;endArrow=none;endFill=0;" parent="1" source="SDGVXNkJ4wVJUg49SY7T-4" target="SDGVXNkJ4wVJUg49SY7T-9" edge="1">
          <mxGeometry relative="1" as="geometry" />
        </mxCell>
        <mxCell id="jqzSuIZmgAgGuRS0_Z6t-22" style="shape=connector;rounded=0;orthogonalLoop=1;jettySize=auto;html=1;exitX=0;exitY=0.25;exitDx=0;exitDy=0;entryX=1;entryY=0.5;entryDx=0;entryDy=0;labelBackgroundColor=default;strokeColor=default;align=center;verticalAlign=middle;fontFamily=Helvetica;fontSize=11;fontColor=default;endArrow=none;endFill=0;" edge="1" parent="1" source="SDGVXNkJ4wVJUg49SY7T-4" target="jqzSuIZmgAgGuRS0_Z6t-21">
          <mxGeometry relative="1" as="geometry" />
        </mxCell>
        <mxCell id="jqzSuIZmgAgGuRS0_Z6t-98" style="edgeStyle=orthogonalEdgeStyle;shape=connector;rounded=0;orthogonalLoop=1;jettySize=auto;html=1;exitX=0.75;exitY=1;exitDx=0;exitDy=0;entryX=0.5;entryY=0;entryDx=0;entryDy=0;labelBackgroundColor=default;strokeColor=default;align=center;verticalAlign=middle;fontFamily=Helvetica;fontSize=11;fontColor=default;endArrow=none;endFill=0;" edge="1" parent="1" source="SDGVXNkJ4wVJUg49SY7T-4" target="jqzSuIZmgAgGuRS0_Z6t-80">
          <mxGeometry relative="1" as="geometry" />
        </mxCell>
        <mxCell id="jqzSuIZmgAgGuRS0_Z6t-406" style="edgeStyle=orthogonalEdgeStyle;shape=connector;rounded=0;orthogonalLoop=1;jettySize=auto;html=1;exitX=0;exitY=0.5;exitDx=0;exitDy=0;entryX=0.5;entryY=1;entryDx=0;entryDy=0;labelBackgroundColor=default;strokeColor=default;align=center;verticalAlign=middle;fontFamily=Helvetica;fontSize=11;fontColor=default;endArrow=none;endFill=0;" edge="1" parent="1" source="SDGVXNkJ4wVJUg49SY7T-4" target="jqzSuIZmgAgGuRS0_Z6t-402">
          <mxGeometry relative="1" as="geometry">
            <Array as="points">
              <mxPoint x="-1360" y="130" />
              <mxPoint x="-1360" y="1480" />
              <mxPoint x="543" y="1480" />
            </Array>
          </mxGeometry>
        </mxCell>
        <mxCell id="SDGVXNkJ4wVJUg49SY7T-4" value="Customer" style="whiteSpace=wrap;html=1;align=center;" parent="1" vertex="1">
          <mxGeometry x="-740" y="110" width="100" height="40" as="geometry" />
        </mxCell>
        <mxCell id="SDGVXNkJ4wVJUg49SY7T-6" style="rounded=0;orthogonalLoop=1;jettySize=auto;html=1;strokeColor=default;endArrow=none;endFill=0;exitX=0.5;exitY=1;exitDx=0;exitDy=0;entryX=0;entryY=0;entryDx=0;entryDy=0;" parent="1" source="SDGVXNkJ4wVJUg49SY7T-5" target="SDGVXNkJ4wVJUg49SY7T-4" edge="1">
          <mxGeometry relative="1" as="geometry">
            <mxPoint x="-790" y="60" as="sourcePoint" />
            <mxPoint x="-731" y="90" as="targetPoint" />
          </mxGeometry>
        </mxCell>
        <mxCell id="SDGVXNkJ4wVJUg49SY7T-5" value="CustLastName" style="ellipse;whiteSpace=wrap;html=1;align=center;fontStyle=4;" parent="1" vertex="1">
          <mxGeometry x="-950" y="-75" width="100" height="40" as="geometry" />
        </mxCell>
        <mxCell id="SDGVXNkJ4wVJUg49SY7T-7" value="CustFirstName" style="ellipse;whiteSpace=wrap;html=1;align=center;fontStyle=4;fontFamily=Helvetica;fontSize=11;fontColor=default;" parent="1" vertex="1">
          <mxGeometry x="-840" y="-75" width="100" height="40" as="geometry" />
        </mxCell>
        <mxCell id="SDGVXNkJ4wVJUg49SY7T-9" value="CustMiddleInitial" style="ellipse;whiteSpace=wrap;html=1;align=center;fontStyle=4;fontFamily=Helvetica;fontSize=11;fontColor=default;" parent="1" vertex="1">
          <mxGeometry x="-730" y="-75" width="100" height="40" as="geometry" />
        </mxCell>
        <mxCell id="jqzSuIZmgAgGuRS0_Z6t-12" style="shape=connector;rounded=0;orthogonalLoop=1;jettySize=auto;html=1;exitX=0;exitY=1;exitDx=0;exitDy=0;entryX=0.5;entryY=0;entryDx=0;entryDy=0;labelBackgroundColor=default;strokeColor=default;align=center;verticalAlign=middle;fontFamily=Helvetica;fontSize=11;fontColor=default;endArrow=none;endFill=0;" edge="1" parent="1" source="SDGVXNkJ4wVJUg49SY7T-12" target="jqzSuIZmgAgGuRS0_Z6t-9">
          <mxGeometry relative="1" as="geometry" />
        </mxCell>
        <mxCell id="jqzSuIZmgAgGuRS0_Z6t-14" style="shape=connector;rounded=0;orthogonalLoop=1;jettySize=auto;html=1;exitX=1;exitY=1;exitDx=0;exitDy=0;entryX=0.5;entryY=0;entryDx=0;entryDy=0;labelBackgroundColor=default;strokeColor=default;align=center;verticalAlign=middle;fontFamily=Helvetica;fontSize=11;fontColor=default;endArrow=none;endFill=0;" edge="1" parent="1" source="SDGVXNkJ4wVJUg49SY7T-12" target="jqzSuIZmgAgGuRS0_Z6t-11">
          <mxGeometry relative="1" as="geometry" />
        </mxCell>
        <mxCell id="jqzSuIZmgAgGuRS0_Z6t-56" style="edgeStyle=none;shape=connector;rounded=0;orthogonalLoop=1;jettySize=auto;html=1;exitX=1;exitY=0.5;exitDx=0;exitDy=0;entryX=0.75;entryY=1;entryDx=0;entryDy=0;labelBackgroundColor=default;strokeColor=default;align=center;verticalAlign=middle;fontFamily=Helvetica;fontSize=11;fontColor=default;endArrow=none;endFill=0;" edge="1" parent="1" source="SDGVXNkJ4wVJUg49SY7T-12" target="SDGVXNkJ4wVJUg49SY7T-4">
          <mxGeometry relative="1" as="geometry" />
        </mxCell>
        <mxCell id="SDGVXNkJ4wVJUg49SY7T-12" value="CustomerRelation" style="shape=rhombus;perimeter=rhombusPerimeter;whiteSpace=wrap;html=1;align=center;fontFamily=Helvetica;fontSize=11;fontColor=default;" parent="1" vertex="1">
          <mxGeometry x="-820" y="190" width="120" height="60" as="geometry" />
        </mxCell>
        <mxCell id="jqzSuIZmgAgGuRS0_Z6t-9" value="RelationToCustomer" style="ellipse;whiteSpace=wrap;html=1;align=center;fontFamily=Helvetica;fontSize=11;fontColor=default;" vertex="1" parent="1">
          <mxGeometry x="-930" y="240" width="100" height="40" as="geometry" />
        </mxCell>
        <mxCell id="jqzSuIZmgAgGuRS0_Z6t-10" value="StartDate" style="ellipse;whiteSpace=wrap;html=1;align=center;fontFamily=Helvetica;fontSize=11;fontColor=default;" vertex="1" parent="1">
          <mxGeometry x="-890" y="290" width="100" height="40" as="geometry" />
        </mxCell>
        <mxCell id="jqzSuIZmgAgGuRS0_Z6t-11" value="EndDate" style="ellipse;whiteSpace=wrap;html=1;align=center;fontFamily=Helvetica;fontSize=11;fontColor=default;" vertex="1" parent="1">
          <mxGeometry x="-790" y="290" width="100" height="40" as="geometry" />
        </mxCell>
        <mxCell id="jqzSuIZmgAgGuRS0_Z6t-13" style="shape=connector;rounded=0;orthogonalLoop=1;jettySize=auto;html=1;exitX=0.5;exitY=1;exitDx=0;exitDy=0;entryX=0.37;entryY=0;entryDx=0;entryDy=0;entryPerimeter=0;labelBackgroundColor=default;strokeColor=default;align=center;verticalAlign=middle;fontFamily=Helvetica;fontSize=11;fontColor=default;endArrow=none;endFill=0;" edge="1" parent="1" source="SDGVXNkJ4wVJUg49SY7T-12" target="jqzSuIZmgAgGuRS0_Z6t-10">
          <mxGeometry relative="1" as="geometry" />
        </mxCell>
        <mxCell id="jqzSuIZmgAgGuRS0_Z6t-32" style="shape=connector;rounded=0;orthogonalLoop=1;jettySize=auto;html=1;exitX=0.25;exitY=1;exitDx=0;exitDy=0;entryX=0.5;entryY=0;entryDx=0;entryDy=0;labelBackgroundColor=default;strokeColor=default;align=center;verticalAlign=middle;fontFamily=Helvetica;fontSize=11;fontColor=default;endArrow=none;endFill=0;" edge="1" parent="1" source="jqzSuIZmgAgGuRS0_Z6t-15" target="jqzSuIZmgAgGuRS0_Z6t-30">
          <mxGeometry relative="1" as="geometry" />
        </mxCell>
        <mxCell id="jqzSuIZmgAgGuRS0_Z6t-33" style="shape=connector;rounded=0;orthogonalLoop=1;jettySize=auto;html=1;exitX=0.75;exitY=1;exitDx=0;exitDy=0;entryX=0.5;entryY=0;entryDx=0;entryDy=0;labelBackgroundColor=default;strokeColor=default;align=center;verticalAlign=middle;fontFamily=Helvetica;fontSize=11;fontColor=default;endArrow=none;endFill=0;" edge="1" parent="1" source="jqzSuIZmgAgGuRS0_Z6t-15" target="jqzSuIZmgAgGuRS0_Z6t-31">
          <mxGeometry relative="1" as="geometry" />
        </mxCell>
        <mxCell id="jqzSuIZmgAgGuRS0_Z6t-15" value="CustomerAddress" style="shape=ext;margin=3;double=1;whiteSpace=wrap;html=1;align=center;fontFamily=Helvetica;fontSize=11;fontColor=default;" vertex="1" parent="1">
          <mxGeometry x="-420" y="100" width="100" height="40" as="geometry" />
        </mxCell>
        <mxCell id="jqzSuIZmgAgGuRS0_Z6t-17" style="edgeStyle=orthogonalEdgeStyle;shape=connector;rounded=0;orthogonalLoop=1;jettySize=auto;html=1;exitX=1;exitY=0.5;exitDx=0;exitDy=0;entryX=0;entryY=0.5;entryDx=0;entryDy=0;labelBackgroundColor=default;strokeColor=default;align=center;verticalAlign=middle;fontFamily=Helvetica;fontSize=11;fontColor=default;endArrow=none;endFill=0;" edge="1" parent="1" source="jqzSuIZmgAgGuRS0_Z6t-16" target="jqzSuIZmgAgGuRS0_Z6t-15">
          <mxGeometry relative="1" as="geometry" />
        </mxCell>
        <mxCell id="jqzSuIZmgAgGuRS0_Z6t-18" style="edgeStyle=orthogonalEdgeStyle;shape=connector;rounded=0;orthogonalLoop=1;jettySize=auto;html=1;exitX=0;exitY=0.5;exitDx=0;exitDy=0;entryX=1;entryY=0.25;entryDx=0;entryDy=0;labelBackgroundColor=default;strokeColor=default;align=center;verticalAlign=middle;fontFamily=Helvetica;fontSize=11;fontColor=default;endArrow=none;endFill=0;" edge="1" parent="1" source="jqzSuIZmgAgGuRS0_Z6t-16" target="SDGVXNkJ4wVJUg49SY7T-4">
          <mxGeometry relative="1" as="geometry">
            <Array as="points">
              <mxPoint x="-580" y="110" />
            </Array>
          </mxGeometry>
        </mxCell>
        <mxCell id="jqzSuIZmgAgGuRS0_Z6t-16" value="hasaddress" style="shape=rhombus;perimeter=rhombusPerimeter;whiteSpace=wrap;html=1;align=center;fontFamily=Helvetica;fontSize=11;fontColor=default;" vertex="1" parent="1">
          <mxGeometry x="-580" y="90" width="120" height="60" as="geometry" />
        </mxCell>
        <mxCell id="jqzSuIZmgAgGuRS0_Z6t-20" style="shape=connector;rounded=0;orthogonalLoop=1;jettySize=auto;html=1;exitX=1;exitY=0.5;exitDx=0;exitDy=0;entryX=0;entryY=0.25;entryDx=0;entryDy=0;labelBackgroundColor=default;strokeColor=default;align=center;verticalAlign=middle;fontFamily=Helvetica;fontSize=11;fontColor=default;endArrow=none;endFill=0;" edge="1" parent="1" source="jqzSuIZmgAgGuRS0_Z6t-19" target="SDGVXNkJ4wVJUg49SY7T-4">
          <mxGeometry relative="1" as="geometry" />
        </mxCell>
        <mxCell id="jqzSuIZmgAgGuRS0_Z6t-19" value="CustSuffix" style="ellipse;whiteSpace=wrap;html=1;align=center;fontStyle=4;fontFamily=Helvetica;fontSize=11;fontColor=default;" vertex="1" parent="1">
          <mxGeometry x="-1070" y="-75" width="100" height="40" as="geometry" />
        </mxCell>
        <mxCell id="jqzSuIZmgAgGuRS0_Z6t-21" value="CustDOB" style="ellipse;whiteSpace=wrap;html=1;align=center;fontStyle=4;fontFamily=Helvetica;fontSize=11;fontColor=default;" vertex="1" parent="1">
          <mxGeometry x="-1080" y="-25" width="100" height="40" as="geometry" />
        </mxCell>
        <mxCell id="jqzSuIZmgAgGuRS0_Z6t-25" value="&lt;span style=&quot;border-bottom: 1px dotted&quot;&gt;CustAddress2&lt;br&gt;&lt;/span&gt;" style="ellipse;whiteSpace=wrap;html=1;align=center;fontFamily=Helvetica;fontSize=11;fontColor=default;" vertex="1" parent="1">
          <mxGeometry x="-390" y="10" width="100" height="40" as="geometry" />
        </mxCell>
        <mxCell id="jqzSuIZmgAgGuRS0_Z6t-27" value="&lt;span style=&quot;border-bottom: 1px dotted&quot;&gt;CustAddress1&lt;br&gt;&lt;/span&gt;" style="ellipse;whiteSpace=wrap;html=1;align=center;fontFamily=Helvetica;fontSize=11;fontColor=default;" vertex="1" parent="1">
          <mxGeometry x="-495" y="40" width="100" height="40" as="geometry" />
        </mxCell>
        <mxCell id="jqzSuIZmgAgGuRS0_Z6t-28" style="shape=connector;rounded=0;orthogonalLoop=1;jettySize=auto;html=1;exitX=0.5;exitY=1;exitDx=0;exitDy=0;entryX=0.077;entryY=-0.067;entryDx=0;entryDy=0;entryPerimeter=0;labelBackgroundColor=default;strokeColor=default;align=center;verticalAlign=middle;fontFamily=Helvetica;fontSize=11;fontColor=default;endArrow=none;endFill=0;" edge="1" parent="1" source="jqzSuIZmgAgGuRS0_Z6t-27" target="jqzSuIZmgAgGuRS0_Z6t-15">
          <mxGeometry relative="1" as="geometry" />
        </mxCell>
        <mxCell id="jqzSuIZmgAgGuRS0_Z6t-29" style="shape=connector;rounded=0;orthogonalLoop=1;jettySize=auto;html=1;exitX=0.5;exitY=1;exitDx=0;exitDy=0;entryX=0.377;entryY=0.017;entryDx=0;entryDy=0;entryPerimeter=0;labelBackgroundColor=default;strokeColor=default;align=center;verticalAlign=middle;fontFamily=Helvetica;fontSize=11;fontColor=default;endArrow=none;endFill=0;" edge="1" parent="1" source="jqzSuIZmgAgGuRS0_Z6t-25" target="jqzSuIZmgAgGuRS0_Z6t-15">
          <mxGeometry relative="1" as="geometry" />
        </mxCell>
        <mxCell id="jqzSuIZmgAgGuRS0_Z6t-30" value="AnnualEndDate" style="ellipse;whiteSpace=wrap;html=1;align=center;fontFamily=Helvetica;fontSize=11;fontColor=default;" vertex="1" parent="1">
          <mxGeometry x="-470" y="180" width="100" height="40" as="geometry" />
        </mxCell>
        <mxCell id="jqzSuIZmgAgGuRS0_Z6t-31" value="AnnualStartDate" style="ellipse;whiteSpace=wrap;html=1;align=center;fontFamily=Helvetica;fontSize=11;fontColor=default;" vertex="1" parent="1">
          <mxGeometry x="-350" y="180" width="100" height="40" as="geometry" />
        </mxCell>
        <mxCell id="jqzSuIZmgAgGuRS0_Z6t-34" value="CustomerAlias" style="shape=ext;margin=3;double=1;whiteSpace=wrap;html=1;align=center;fontFamily=Helvetica;fontSize=11;fontColor=default;" vertex="1" parent="1">
          <mxGeometry x="-430" y="270" width="100" height="40" as="geometry" />
        </mxCell>
        <mxCell id="jqzSuIZmgAgGuRS0_Z6t-36" style="shape=connector;rounded=0;orthogonalLoop=1;jettySize=auto;html=1;exitX=0;exitY=0.5;exitDx=0;exitDy=0;entryX=1;entryY=0.25;entryDx=0;entryDy=0;labelBackgroundColor=default;strokeColor=default;align=center;verticalAlign=middle;fontFamily=Helvetica;fontSize=11;fontColor=default;endArrow=none;endFill=0;" edge="1" parent="1" source="jqzSuIZmgAgGuRS0_Z6t-35" target="jqzSuIZmgAgGuRS0_Z6t-34">
          <mxGeometry relative="1" as="geometry" />
        </mxCell>
        <mxCell id="jqzSuIZmgAgGuRS0_Z6t-35" value="&lt;span style=&quot;border-bottom: 1px dotted&quot;&gt;AliasLastName&lt;br&gt;&lt;/span&gt;" style="ellipse;whiteSpace=wrap;html=1;align=center;fontFamily=Helvetica;fontSize=11;fontColor=default;" vertex="1" parent="1">
          <mxGeometry x="-290" y="250" width="100" height="40" as="geometry" />
        </mxCell>
        <mxCell id="jqzSuIZmgAgGuRS0_Z6t-39" style="edgeStyle=none;shape=connector;rounded=0;orthogonalLoop=1;jettySize=auto;html=1;exitX=0;exitY=0.5;exitDx=0;exitDy=0;entryX=1;entryY=0.75;entryDx=0;entryDy=0;labelBackgroundColor=default;strokeColor=default;align=center;verticalAlign=middle;fontFamily=Helvetica;fontSize=11;fontColor=default;endArrow=none;endFill=0;" edge="1" parent="1" source="jqzSuIZmgAgGuRS0_Z6t-37" target="jqzSuIZmgAgGuRS0_Z6t-34">
          <mxGeometry relative="1" as="geometry" />
        </mxCell>
        <mxCell id="jqzSuIZmgAgGuRS0_Z6t-37" value="&lt;span style=&quot;border-bottom: 1px dotted&quot;&gt;AliasFirstName&lt;br&gt;&lt;/span&gt;" style="ellipse;whiteSpace=wrap;html=1;align=center;fontFamily=Helvetica;fontSize=11;fontColor=default;" vertex="1" parent="1">
          <mxGeometry x="-290" y="290" width="100" height="40" as="geometry" />
        </mxCell>
        <mxCell id="jqzSuIZmgAgGuRS0_Z6t-40" style="edgeStyle=none;shape=connector;rounded=0;orthogonalLoop=1;jettySize=auto;html=1;exitX=0;exitY=0.5;exitDx=0;exitDy=0;entryX=1;entryY=1;entryDx=0;entryDy=0;labelBackgroundColor=default;strokeColor=default;align=center;verticalAlign=middle;fontFamily=Helvetica;fontSize=11;fontColor=default;endArrow=none;endFill=0;" edge="1" parent="1" source="jqzSuIZmgAgGuRS0_Z6t-38" target="jqzSuIZmgAgGuRS0_Z6t-34">
          <mxGeometry relative="1" as="geometry" />
        </mxCell>
        <mxCell id="jqzSuIZmgAgGuRS0_Z6t-38" value="&lt;span style=&quot;border-bottom: 1px dotted&quot;&gt;AliasMiddleInitial&lt;br&gt;&lt;/span&gt;" style="ellipse;whiteSpace=wrap;html=1;align=center;fontFamily=Helvetica;fontSize=11;fontColor=default;" vertex="1" parent="1">
          <mxGeometry x="-290" y="330" width="100" height="40" as="geometry" />
        </mxCell>
        <mxCell id="jqzSuIZmgAgGuRS0_Z6t-43" style="edgeStyle=orthogonalEdgeStyle;shape=connector;rounded=0;orthogonalLoop=1;jettySize=auto;html=1;exitX=1;exitY=1;exitDx=0;exitDy=0;entryX=0;entryY=0.5;entryDx=0;entryDy=0;labelBackgroundColor=default;strokeColor=default;align=center;verticalAlign=middle;fontFamily=Helvetica;fontSize=11;fontColor=default;endArrow=none;endFill=0;" edge="1" parent="1" source="jqzSuIZmgAgGuRS0_Z6t-41" target="jqzSuIZmgAgGuRS0_Z6t-34">
          <mxGeometry relative="1" as="geometry" />
        </mxCell>
        <mxCell id="jqzSuIZmgAgGuRS0_Z6t-41" value="hasAlias" style="shape=rhombus;perimeter=rhombusPerimeter;whiteSpace=wrap;html=1;align=center;fontFamily=Helvetica;fontSize=11;fontColor=default;" vertex="1" parent="1">
          <mxGeometry x="-590" y="200" width="120" height="60" as="geometry" />
        </mxCell>
        <mxCell id="jqzSuIZmgAgGuRS0_Z6t-42" style="shape=connector;rounded=0;orthogonalLoop=1;jettySize=auto;html=1;exitX=1;exitY=1;exitDx=0;exitDy=0;labelBackgroundColor=default;strokeColor=default;align=center;verticalAlign=middle;fontFamily=Helvetica;fontSize=11;fontColor=default;endArrow=none;endFill=0;" edge="1" parent="1" source="SDGVXNkJ4wVJUg49SY7T-4" target="jqzSuIZmgAgGuRS0_Z6t-41">
          <mxGeometry relative="1" as="geometry" />
        </mxCell>
        <mxCell id="jqzSuIZmgAgGuRS0_Z6t-47" style="edgeStyle=none;shape=connector;rounded=0;orthogonalLoop=1;jettySize=auto;html=1;exitX=1;exitY=0.5;exitDx=0;exitDy=0;entryX=0;entryY=0.5;entryDx=0;entryDy=0;labelBackgroundColor=default;strokeColor=default;align=center;verticalAlign=middle;fontFamily=Helvetica;fontSize=11;fontColor=default;endArrow=none;endFill=0;" edge="1" parent="1" source="jqzSuIZmgAgGuRS0_Z6t-44" target="jqzSuIZmgAgGuRS0_Z6t-46">
          <mxGeometry relative="1" as="geometry" />
        </mxCell>
        <mxCell id="jqzSuIZmgAgGuRS0_Z6t-407" style="edgeStyle=none;shape=connector;rounded=0;orthogonalLoop=1;jettySize=auto;html=1;exitX=0.25;exitY=1;exitDx=0;exitDy=0;entryX=1;entryY=0;entryDx=0;entryDy=0;labelBackgroundColor=default;strokeColor=default;align=center;verticalAlign=middle;fontFamily=Helvetica;fontSize=11;fontColor=default;endArrow=none;endFill=0;" edge="1" parent="1" source="jqzSuIZmgAgGuRS0_Z6t-44" target="jqzSuIZmgAgGuRS0_Z6t-53">
          <mxGeometry relative="1" as="geometry" />
        </mxCell>
        <mxCell id="jqzSuIZmgAgGuRS0_Z6t-44" value="CustomerImage" style="shape=ext;margin=3;double=1;whiteSpace=wrap;html=1;align=center;fontFamily=Helvetica;fontSize=11;fontColor=default;" vertex="1" parent="1">
          <mxGeometry x="-1250" y="20" width="100" height="40" as="geometry" />
        </mxCell>
        <mxCell id="jqzSuIZmgAgGuRS0_Z6t-408" style="edgeStyle=none;shape=connector;rounded=0;orthogonalLoop=1;jettySize=auto;html=1;exitX=1;exitY=0.5;exitDx=0;exitDy=0;entryX=0;entryY=0.5;entryDx=0;entryDy=0;labelBackgroundColor=default;strokeColor=default;align=center;verticalAlign=middle;fontFamily=Helvetica;fontSize=11;fontColor=default;endArrow=none;endFill=0;" edge="1" parent="1" source="jqzSuIZmgAgGuRS0_Z6t-46" target="SDGVXNkJ4wVJUg49SY7T-4">
          <mxGeometry relative="1" as="geometry" />
        </mxCell>
        <mxCell id="jqzSuIZmgAgGuRS0_Z6t-46" value="hasimage" style="shape=rhombus;perimeter=rhombusPerimeter;whiteSpace=wrap;html=1;align=center;fontFamily=Helvetica;fontSize=11;fontColor=default;" vertex="1" parent="1">
          <mxGeometry x="-1070" y="45" width="120" height="60" as="geometry" />
        </mxCell>
        <mxCell id="jqzSuIZmgAgGuRS0_Z6t-49" value="&lt;span style=&quot;border-bottom: 1px dotted&quot;&gt;ImageFileLocation&lt;/span&gt;" style="ellipse;whiteSpace=wrap;html=1;align=center;fontFamily=Helvetica;fontSize=11;fontColor=default;" vertex="1" parent="1">
          <mxGeometry x="-1310" y="-50" width="100" height="40" as="geometry" />
        </mxCell>
        <mxCell id="jqzSuIZmgAgGuRS0_Z6t-50" style="edgeStyle=none;shape=connector;rounded=0;orthogonalLoop=1;jettySize=auto;html=1;exitX=0.5;exitY=1;exitDx=0;exitDy=0;entryX=0.103;entryY=-0.033;entryDx=0;entryDy=0;entryPerimeter=0;labelBackgroundColor=default;strokeColor=default;align=center;verticalAlign=middle;fontFamily=Helvetica;fontSize=11;fontColor=default;endArrow=none;endFill=0;" edge="1" parent="1" source="jqzSuIZmgAgGuRS0_Z6t-49" target="jqzSuIZmgAgGuRS0_Z6t-44">
          <mxGeometry relative="1" as="geometry" />
        </mxCell>
        <mxCell id="jqzSuIZmgAgGuRS0_Z6t-52" style="edgeStyle=none;shape=connector;rounded=0;orthogonalLoop=1;jettySize=auto;html=1;exitX=1;exitY=0.5;exitDx=0;exitDy=0;entryX=0;entryY=0.5;entryDx=0;entryDy=0;labelBackgroundColor=default;strokeColor=default;align=center;verticalAlign=middle;fontFamily=Helvetica;fontSize=11;fontColor=default;endArrow=none;endFill=0;" edge="1" parent="1" source="jqzSuIZmgAgGuRS0_Z6t-51" target="jqzSuIZmgAgGuRS0_Z6t-44">
          <mxGeometry relative="1" as="geometry" />
        </mxCell>
        <mxCell id="jqzSuIZmgAgGuRS0_Z6t-51" value="ImageType" style="ellipse;whiteSpace=wrap;html=1;align=center;fontFamily=Helvetica;fontSize=11;fontColor=default;" vertex="1" parent="1">
          <mxGeometry x="-1370" y="10" width="100" height="40" as="geometry" />
        </mxCell>
        <mxCell id="jqzSuIZmgAgGuRS0_Z6t-53" value="DataReceived" style="ellipse;whiteSpace=wrap;html=1;align=center;fontFamily=Helvetica;fontSize=11;fontColor=default;" vertex="1" parent="1">
          <mxGeometry x="-1350" y="80" width="100" height="40" as="geometry" />
        </mxCell>
        <mxCell id="jqzSuIZmgAgGuRS0_Z6t-55" style="edgeStyle=none;shape=connector;rounded=0;orthogonalLoop=1;jettySize=auto;html=1;exitX=0;exitY=0.5;exitDx=0;exitDy=0;entryX=0;entryY=1;entryDx=0;entryDy=0;labelBackgroundColor=default;strokeColor=default;align=center;verticalAlign=middle;fontFamily=Helvetica;fontSize=11;fontColor=default;endArrow=none;endFill=0;" edge="1" parent="1" source="SDGVXNkJ4wVJUg49SY7T-12" target="SDGVXNkJ4wVJUg49SY7T-4">
          <mxGeometry relative="1" as="geometry">
            <mxPoint x="-761.3000000000002" y="160.00000000000017" as="targetPoint" />
          </mxGeometry>
        </mxCell>
        <mxCell id="jqzSuIZmgAgGuRS0_Z6t-61" style="edgeStyle=none;shape=connector;rounded=0;orthogonalLoop=1;jettySize=auto;html=1;exitX=0.5;exitY=1;exitDx=0;exitDy=0;entryX=0.5;entryY=0;entryDx=0;entryDy=0;labelBackgroundColor=default;strokeColor=default;align=center;verticalAlign=middle;fontFamily=Helvetica;fontSize=11;fontColor=default;endArrow=none;endFill=0;" edge="1" parent="1" source="jqzSuIZmgAgGuRS0_Z6t-57" target="jqzSuIZmgAgGuRS0_Z6t-60">
          <mxGeometry relative="1" as="geometry" />
        </mxCell>
        <mxCell id="jqzSuIZmgAgGuRS0_Z6t-66" style="edgeStyle=none;shape=connector;rounded=0;orthogonalLoop=1;jettySize=auto;html=1;exitX=1;exitY=1;exitDx=0;exitDy=0;entryX=0;entryY=0;entryDx=0;entryDy=0;labelBackgroundColor=default;strokeColor=default;align=center;verticalAlign=middle;fontFamily=Helvetica;fontSize=11;fontColor=default;endArrow=none;endFill=0;" edge="1" parent="1" source="jqzSuIZmgAgGuRS0_Z6t-57" target="jqzSuIZmgAgGuRS0_Z6t-63">
          <mxGeometry relative="1" as="geometry" />
        </mxCell>
        <mxCell id="jqzSuIZmgAgGuRS0_Z6t-263" style="edgeStyle=orthogonalEdgeStyle;shape=connector;rounded=0;orthogonalLoop=1;jettySize=auto;html=1;exitX=1;exitY=0.5;exitDx=0;exitDy=0;entryX=0;entryY=0.5;entryDx=0;entryDy=0;labelBackgroundColor=default;strokeColor=default;align=center;verticalAlign=middle;fontFamily=Helvetica;fontSize=11;fontColor=default;endArrow=none;endFill=0;" edge="1" parent="1" source="jqzSuIZmgAgGuRS0_Z6t-57" target="jqzSuIZmgAgGuRS0_Z6t-80">
          <mxGeometry relative="1" as="geometry" />
        </mxCell>
        <mxCell id="jqzSuIZmgAgGuRS0_Z6t-57" value="Claim" style="whiteSpace=wrap;html=1;align=center;fontFamily=Helvetica;fontSize=11;fontColor=default;" vertex="1" parent="1">
          <mxGeometry x="-1190" y="980" width="100" height="40" as="geometry" />
        </mxCell>
        <mxCell id="jqzSuIZmgAgGuRS0_Z6t-58" value="ClaimNumber" style="ellipse;whiteSpace=wrap;html=1;align=center;fontStyle=4;fontFamily=Helvetica;fontSize=11;fontColor=default;" vertex="1" parent="1">
          <mxGeometry x="-1300" y="1060" width="100" height="40" as="geometry" />
        </mxCell>
        <mxCell id="jqzSuIZmgAgGuRS0_Z6t-59" style="edgeStyle=none;shape=connector;rounded=0;orthogonalLoop=1;jettySize=auto;html=1;exitX=0.25;exitY=1;exitDx=0;exitDy=0;entryX=1;entryY=0;entryDx=0;entryDy=0;labelBackgroundColor=default;strokeColor=default;align=center;verticalAlign=middle;fontFamily=Helvetica;fontSize=11;fontColor=default;endArrow=none;endFill=0;" edge="1" parent="1" source="jqzSuIZmgAgGuRS0_Z6t-57" target="jqzSuIZmgAgGuRS0_Z6t-58">
          <mxGeometry relative="1" as="geometry">
            <mxPoint x="-1259" y="1061.3200000000002" as="targetPoint" />
          </mxGeometry>
        </mxCell>
        <mxCell id="jqzSuIZmgAgGuRS0_Z6t-60" value="ClaimDate" style="ellipse;whiteSpace=wrap;html=1;align=center;fontFamily=Helvetica;fontSize=11;fontColor=default;" vertex="1" parent="1">
          <mxGeometry x="-1200" y="1060" width="100" height="40" as="geometry" />
        </mxCell>
        <mxCell id="jqzSuIZmgAgGuRS0_Z6t-62" value="&lt;span style=&quot;border-bottom: 1px dotted&quot;&gt;SettlementDate&lt;/span&gt;" style="ellipse;whiteSpace=wrap;html=1;align=center;fontFamily=Helvetica;fontSize=11;fontColor=default;" vertex="1" parent="1">
          <mxGeometry x="-1100" y="1060" width="100" height="40" as="geometry" />
        </mxCell>
        <mxCell id="jqzSuIZmgAgGuRS0_Z6t-63" value="WellnessEligibityDate" style="ellipse;whiteSpace=wrap;html=1;align=center;fontFamily=Helvetica;fontSize=11;fontColor=default;" vertex="1" parent="1">
          <mxGeometry x="-1000" y="1060" width="145" height="40" as="geometry" />
        </mxCell>
        <mxCell id="jqzSuIZmgAgGuRS0_Z6t-64" style="edgeStyle=none;shape=connector;rounded=0;orthogonalLoop=1;jettySize=auto;html=1;exitX=0.5;exitY=0;exitDx=0;exitDy=0;labelBackgroundColor=default;strokeColor=default;align=center;verticalAlign=middle;fontFamily=Helvetica;fontSize=11;fontColor=default;endArrow=none;endFill=0;entryX=0.75;entryY=1;entryDx=0;entryDy=0;" edge="1" parent="1" source="jqzSuIZmgAgGuRS0_Z6t-62" target="jqzSuIZmgAgGuRS0_Z6t-57">
          <mxGeometry relative="1" as="geometry">
            <mxPoint x="-1110" y="1030" as="targetPoint" />
          </mxGeometry>
        </mxCell>
        <mxCell id="jqzSuIZmgAgGuRS0_Z6t-67" value="ClaimImage" style="shape=ext;margin=3;double=1;whiteSpace=wrap;html=1;align=center;fontFamily=Helvetica;fontSize=11;fontColor=default;" vertex="1" parent="1">
          <mxGeometry x="-865" y="1190" width="100" height="40" as="geometry" />
        </mxCell>
        <mxCell id="jqzSuIZmgAgGuRS0_Z6t-68" value="&lt;span style=&quot;border-bottom: 1px dotted&quot;&gt;DocumentID&lt;/span&gt;" style="ellipse;whiteSpace=wrap;html=1;align=center;fontFamily=Helvetica;fontSize=11;fontColor=default;" vertex="1" parent="1">
          <mxGeometry x="-925" y="1250" width="100" height="40" as="geometry" />
        </mxCell>
        <mxCell id="jqzSuIZmgAgGuRS0_Z6t-69" value="&lt;span style=&quot;border-bottom: 1px dotted&quot;&gt;ClaimNumber&lt;br&gt;&lt;/span&gt;" style="ellipse;whiteSpace=wrap;html=1;align=center;fontFamily=Helvetica;fontSize=11;fontColor=default;" vertex="1" parent="1">
          <mxGeometry x="-825" y="1250" width="100" height="40" as="geometry" />
        </mxCell>
        <mxCell id="jqzSuIZmgAgGuRS0_Z6t-70" style="edgeStyle=none;shape=connector;rounded=0;orthogonalLoop=1;jettySize=auto;html=1;exitX=0.25;exitY=1;exitDx=0;exitDy=0;entryX=0.657;entryY=0.017;entryDx=0;entryDy=0;entryPerimeter=0;labelBackgroundColor=default;strokeColor=default;align=center;verticalAlign=middle;fontFamily=Helvetica;fontSize=11;fontColor=default;endArrow=none;endFill=0;" edge="1" parent="1" source="jqzSuIZmgAgGuRS0_Z6t-67" target="jqzSuIZmgAgGuRS0_Z6t-68">
          <mxGeometry relative="1" as="geometry" />
        </mxCell>
        <mxCell id="jqzSuIZmgAgGuRS0_Z6t-73" style="edgeStyle=none;shape=connector;rounded=0;orthogonalLoop=1;jettySize=auto;html=1;exitX=1;exitY=1;exitDx=0;exitDy=0;entryX=0;entryY=0.25;entryDx=0;entryDy=0;labelBackgroundColor=default;strokeColor=default;align=center;verticalAlign=middle;fontFamily=Helvetica;fontSize=11;fontColor=default;endArrow=none;endFill=0;" edge="1" parent="1" source="jqzSuIZmgAgGuRS0_Z6t-72" target="jqzSuIZmgAgGuRS0_Z6t-67">
          <mxGeometry relative="1" as="geometry" />
        </mxCell>
        <mxCell id="jqzSuIZmgAgGuRS0_Z6t-108" style="edgeStyle=none;shape=connector;rounded=0;orthogonalLoop=1;jettySize=auto;html=1;exitX=1;exitY=0.5;exitDx=0;exitDy=0;entryX=0;entryY=0.75;entryDx=0;entryDy=0;labelBackgroundColor=default;strokeColor=default;align=center;verticalAlign=middle;fontFamily=Helvetica;fontSize=11;fontColor=default;endArrow=none;endFill=0;" edge="1" parent="1" source="jqzSuIZmgAgGuRS0_Z6t-72" target="jqzSuIZmgAgGuRS0_Z6t-106">
          <mxGeometry relative="1" as="geometry" />
        </mxCell>
        <mxCell id="jqzSuIZmgAgGuRS0_Z6t-72" value="HhasImage" style="shape=rhombus;perimeter=rhombusPerimeter;whiteSpace=wrap;html=1;align=center;fontFamily=Helvetica;fontSize=11;fontColor=default;" vertex="1" parent="1">
          <mxGeometry x="-995" y="1110" width="120" height="60" as="geometry" />
        </mxCell>
        <mxCell id="jqzSuIZmgAgGuRS0_Z6t-102" style="edgeStyle=none;shape=connector;rounded=0;orthogonalLoop=1;jettySize=auto;html=1;exitX=1;exitY=1;exitDx=0;exitDy=0;labelBackgroundColor=default;strokeColor=default;align=center;verticalAlign=middle;fontFamily=Helvetica;fontSize=11;fontColor=default;endArrow=none;endFill=0;" edge="1" parent="1" source="jqzSuIZmgAgGuRS0_Z6t-80" target="jqzSuIZmgAgGuRS0_Z6t-101">
          <mxGeometry relative="1" as="geometry" />
        </mxCell>
        <mxCell id="jqzSuIZmgAgGuRS0_Z6t-107" style="edgeStyle=none;shape=connector;rounded=0;orthogonalLoop=1;jettySize=auto;html=1;exitX=0;exitY=1;exitDx=0;exitDy=0;entryX=0.5;entryY=0;entryDx=0;entryDy=0;labelBackgroundColor=default;strokeColor=default;align=center;verticalAlign=middle;fontFamily=Helvetica;fontSize=11;fontColor=default;endArrow=none;endFill=0;" edge="1" parent="1" source="jqzSuIZmgAgGuRS0_Z6t-80" target="jqzSuIZmgAgGuRS0_Z6t-106">
          <mxGeometry relative="1" as="geometry" />
        </mxCell>
        <mxCell id="jqzSuIZmgAgGuRS0_Z6t-80" value="Coverage Claim" style="shape=rhombus;perimeter=rhombusPerimeter;whiteSpace=wrap;html=1;align=center;fontFamily=Helvetica;fontSize=11;fontColor=default;" vertex="1" parent="1">
          <mxGeometry x="-600" y="1020" width="120" height="60" as="geometry" />
        </mxCell>
        <mxCell id="jqzSuIZmgAgGuRS0_Z6t-87" style="edgeStyle=orthogonalEdgeStyle;shape=connector;rounded=0;orthogonalLoop=1;jettySize=auto;html=1;exitX=0;exitY=0.5;exitDx=0;exitDy=0;entryX=1;entryY=0.5;entryDx=0;entryDy=0;labelBackgroundColor=default;strokeColor=default;align=center;verticalAlign=middle;fontFamily=Helvetica;fontSize=11;fontColor=default;endArrow=none;endFill=0;" edge="1" parent="1" source="jqzSuIZmgAgGuRS0_Z6t-83" target="jqzSuIZmgAgGuRS0_Z6t-80">
          <mxGeometry relative="1" as="geometry" />
        </mxCell>
        <mxCell id="jqzSuIZmgAgGuRS0_Z6t-305" style="edgeStyle=none;shape=connector;rounded=0;orthogonalLoop=1;jettySize=auto;html=1;exitX=1;exitY=0;exitDx=0;exitDy=0;entryX=0;entryY=0.5;entryDx=0;entryDy=0;labelBackgroundColor=default;strokeColor=default;align=center;verticalAlign=middle;fontFamily=Helvetica;fontSize=11;fontColor=default;endArrow=none;endFill=0;" edge="1" parent="1" source="jqzSuIZmgAgGuRS0_Z6t-83" target="jqzSuIZmgAgGuRS0_Z6t-304">
          <mxGeometry relative="1" as="geometry" />
        </mxCell>
        <mxCell id="jqzSuIZmgAgGuRS0_Z6t-308" style="edgeStyle=none;shape=connector;rounded=0;orthogonalLoop=1;jettySize=auto;html=1;exitX=1;exitY=0.5;exitDx=0;exitDy=0;entryX=0;entryY=0.5;entryDx=0;entryDy=0;labelBackgroundColor=default;strokeColor=default;align=center;verticalAlign=middle;fontFamily=Helvetica;fontSize=11;fontColor=default;endArrow=none;endFill=0;" edge="1" parent="1" source="jqzSuIZmgAgGuRS0_Z6t-83" target="jqzSuIZmgAgGuRS0_Z6t-307">
          <mxGeometry relative="1" as="geometry" />
        </mxCell>
        <mxCell id="jqzSuIZmgAgGuRS0_Z6t-83" value="Contract-h" style="whiteSpace=wrap;html=1;align=center;fontFamily=Helvetica;fontSize=11;fontColor=default;" vertex="1" parent="1">
          <mxGeometry x="1010" y="1000" width="100" height="40" as="geometry" />
        </mxCell>
        <mxCell id="jqzSuIZmgAgGuRS0_Z6t-85" value="ContractNumber" style="ellipse;whiteSpace=wrap;html=1;align=center;fontStyle=4;fontFamily=Helvetica;fontSize=11;fontColor=default;" vertex="1" parent="1">
          <mxGeometry x="980" y="1060" width="100" height="40" as="geometry" />
        </mxCell>
        <mxCell id="jqzSuIZmgAgGuRS0_Z6t-86" style="edgeStyle=none;shape=connector;rounded=0;orthogonalLoop=1;jettySize=auto;html=1;exitX=0.25;exitY=1;exitDx=0;exitDy=0;entryX=0.57;entryY=0.017;entryDx=0;entryDy=0;entryPerimeter=0;labelBackgroundColor=default;strokeColor=default;align=center;verticalAlign=middle;fontFamily=Helvetica;fontSize=11;fontColor=default;endArrow=none;endFill=0;" edge="1" parent="1" source="jqzSuIZmgAgGuRS0_Z6t-83" target="jqzSuIZmgAgGuRS0_Z6t-85">
          <mxGeometry relative="1" as="geometry" />
        </mxCell>
        <mxCell id="jqzSuIZmgAgGuRS0_Z6t-90" style="edgeStyle=none;shape=connector;rounded=0;orthogonalLoop=1;jettySize=auto;html=1;exitX=0.25;exitY=1;exitDx=0;exitDy=0;entryX=0.5;entryY=0;entryDx=0;entryDy=0;labelBackgroundColor=default;strokeColor=default;align=center;verticalAlign=middle;fontFamily=Helvetica;fontSize=11;fontColor=default;endArrow=none;endFill=0;" edge="1" parent="1" source="jqzSuIZmgAgGuRS0_Z6t-88" target="jqzSuIZmgAgGuRS0_Z6t-89">
          <mxGeometry relative="1" as="geometry" />
        </mxCell>
        <mxCell id="jqzSuIZmgAgGuRS0_Z6t-92" style="edgeStyle=none;shape=connector;rounded=0;orthogonalLoop=1;jettySize=auto;html=1;exitX=0.5;exitY=1;exitDx=0;exitDy=0;entryX=0.5;entryY=0;entryDx=0;entryDy=0;labelBackgroundColor=default;strokeColor=default;align=center;verticalAlign=middle;fontFamily=Helvetica;fontSize=11;fontColor=default;endArrow=none;endFill=0;" edge="1" parent="1" source="jqzSuIZmgAgGuRS0_Z6t-88" target="jqzSuIZmgAgGuRS0_Z6t-91">
          <mxGeometry relative="1" as="geometry" />
        </mxCell>
        <mxCell id="jqzSuIZmgAgGuRS0_Z6t-105" style="edgeStyle=none;shape=connector;rounded=0;orthogonalLoop=1;jettySize=auto;html=1;exitX=0.25;exitY=1;exitDx=0;exitDy=0;labelBackgroundColor=default;strokeColor=default;align=center;verticalAlign=middle;fontFamily=Helvetica;fontSize=11;fontColor=default;endArrow=none;endFill=0;" edge="1" parent="1" source="jqzSuIZmgAgGuRS0_Z6t-88" target="jqzSuIZmgAgGuRS0_Z6t-80">
          <mxGeometry relative="1" as="geometry">
            <mxPoint x="-575.1020408163267" y="987.5510204081634" as="targetPoint" />
          </mxGeometry>
        </mxCell>
        <mxCell id="jqzSuIZmgAgGuRS0_Z6t-88" value="FinancialInstituion" style="whiteSpace=wrap;html=1;align=center;fontFamily=Helvetica;fontSize=11;fontColor=default;" vertex="1" parent="1">
          <mxGeometry x="-770" y="940" width="100" height="40" as="geometry" />
        </mxCell>
        <mxCell id="jqzSuIZmgAgGuRS0_Z6t-89" value="FIName" style="ellipse;whiteSpace=wrap;html=1;align=center;fontStyle=4;fontFamily=Helvetica;fontSize=11;fontColor=default;" vertex="1" parent="1">
          <mxGeometry x="-855" y="780" width="100" height="40" as="geometry" />
        </mxCell>
        <mxCell id="jqzSuIZmgAgGuRS0_Z6t-91" value="FiIAddress" style="ellipse;whiteSpace=wrap;html=1;align=center;fontStyle=4;fontFamily=Helvetica;fontSize=11;fontColor=default;" vertex="1" parent="1">
          <mxGeometry x="-755" y="780" width="100" height="40" as="geometry" />
        </mxCell>
        <mxCell id="jqzSuIZmgAgGuRS0_Z6t-392" style="edgeStyle=none;shape=connector;rounded=0;orthogonalLoop=1;jettySize=auto;html=1;exitX=0.5;exitY=1;exitDx=0;exitDy=0;entryX=0.75;entryY=0;entryDx=0;entryDy=0;labelBackgroundColor=default;strokeColor=default;align=center;verticalAlign=middle;fontFamily=Helvetica;fontSize=11;fontColor=default;endArrow=none;endFill=0;" edge="1" parent="1" source="jqzSuIZmgAgGuRS0_Z6t-93" target="jqzSuIZmgAgGuRS0_Z6t-88">
          <mxGeometry relative="1" as="geometry" />
        </mxCell>
        <mxCell id="jqzSuIZmgAgGuRS0_Z6t-93" value="FINCity" style="ellipse;whiteSpace=wrap;html=1;align=center;fontFamily=Helvetica;fontSize=11;fontColor=default;" vertex="1" parent="1">
          <mxGeometry x="-655" y="780" width="100" height="40" as="geometry" />
        </mxCell>
        <mxCell id="jqzSuIZmgAgGuRS0_Z6t-101" value="ClaimNote" style="shape=ext;margin=3;double=1;whiteSpace=wrap;html=1;align=center;fontFamily=Helvetica;fontSize=11;fontColor=default;" vertex="1" parent="1">
          <mxGeometry x="-495" y="1210" width="100" height="40" as="geometry" />
        </mxCell>
        <mxCell id="jqzSuIZmgAgGuRS0_Z6t-106" value="Claiment" style="shape=ext;margin=3;double=1;whiteSpace=wrap;html=1;align=center;fontFamily=Helvetica;fontSize=11;fontColor=default;" vertex="1" parent="1">
          <mxGeometry x="-700" y="1210" width="100" height="40" as="geometry" />
        </mxCell>
        <mxCell id="jqzSuIZmgAgGuRS0_Z6t-126" style="edgeStyle=none;shape=connector;rounded=0;orthogonalLoop=1;jettySize=auto;html=1;exitX=0.25;exitY=1;exitDx=0;exitDy=0;entryX=0;entryY=0.5;entryDx=0;entryDy=0;labelBackgroundColor=default;strokeColor=default;align=center;verticalAlign=middle;fontFamily=Helvetica;fontSize=11;fontColor=default;endArrow=none;endFill=0;" edge="1" parent="1" source="jqzSuIZmgAgGuRS0_Z6t-109" target="jqzSuIZmgAgGuRS0_Z6t-125">
          <mxGeometry relative="1" as="geometry" />
        </mxCell>
        <mxCell id="jqzSuIZmgAgGuRS0_Z6t-127" style="edgeStyle=none;shape=connector;rounded=0;orthogonalLoop=1;jettySize=auto;html=1;exitX=0.75;exitY=1;exitDx=0;exitDy=0;entryX=1;entryY=0.5;entryDx=0;entryDy=0;labelBackgroundColor=default;strokeColor=default;align=center;verticalAlign=middle;fontFamily=Helvetica;fontSize=11;fontColor=default;endArrow=none;endFill=0;" edge="1" parent="1" source="jqzSuIZmgAgGuRS0_Z6t-109" target="jqzSuIZmgAgGuRS0_Z6t-125">
          <mxGeometry relative="1" as="geometry" />
        </mxCell>
        <mxCell id="jqzSuIZmgAgGuRS0_Z6t-133" style="edgeStyle=none;shape=connector;rounded=0;orthogonalLoop=1;jettySize=auto;html=1;exitX=0;exitY=0.5;exitDx=0;exitDy=0;entryX=0.5;entryY=0;entryDx=0;entryDy=0;labelBackgroundColor=default;strokeColor=default;align=center;verticalAlign=middle;fontFamily=Helvetica;fontSize=11;fontColor=default;endArrow=none;endFill=0;" edge="1" parent="1" source="jqzSuIZmgAgGuRS0_Z6t-109" target="jqzSuIZmgAgGuRS0_Z6t-132">
          <mxGeometry relative="1" as="geometry" />
        </mxCell>
        <mxCell id="jqzSuIZmgAgGuRS0_Z6t-388" style="edgeStyle=orthogonalEdgeStyle;shape=connector;rounded=0;orthogonalLoop=1;jettySize=auto;html=1;exitX=1;exitY=0.5;exitDx=0;exitDy=0;labelBackgroundColor=default;strokeColor=default;align=center;verticalAlign=middle;fontFamily=Helvetica;fontSize=11;fontColor=default;endArrow=none;endFill=0;elbow=vertical;entryX=1;entryY=0.5;entryDx=0;entryDy=0;" edge="1" parent="1" source="jqzSuIZmgAgGuRS0_Z6t-109" target="jqzSuIZmgAgGuRS0_Z6t-390">
          <mxGeometry relative="1" as="geometry">
            <mxPoint x="1120" y="740" as="targetPoint" />
            <Array as="points">
              <mxPoint x="350" y="-600" />
              <mxPoint x="1910" y="-600" />
              <mxPoint x="1910" y="540" />
            </Array>
          </mxGeometry>
        </mxCell>
        <mxCell id="jqzSuIZmgAgGuRS0_Z6t-109" value="Account-h" style="whiteSpace=wrap;html=1;align=center;fontFamily=Helvetica;fontSize=11;fontColor=default;" vertex="1" parent="1">
          <mxGeometry x="250" y="-155" width="100" height="40" as="geometry" />
        </mxCell>
        <mxCell id="jqzSuIZmgAgGuRS0_Z6t-115" style="edgeStyle=none;shape=connector;rounded=0;orthogonalLoop=1;jettySize=auto;html=1;exitX=0.5;exitY=1;exitDx=0;exitDy=0;entryX=0;entryY=0;entryDx=0;entryDy=0;labelBackgroundColor=default;strokeColor=default;align=center;verticalAlign=middle;fontFamily=Helvetica;fontSize=11;fontColor=default;endArrow=none;endFill=0;" edge="1" parent="1" source="jqzSuIZmgAgGuRS0_Z6t-110" target="jqzSuIZmgAgGuRS0_Z6t-109">
          <mxGeometry relative="1" as="geometry" />
        </mxCell>
        <mxCell id="jqzSuIZmgAgGuRS0_Z6t-110" value="AccountName" style="ellipse;whiteSpace=wrap;html=1;align=center;fontStyle=4;fontFamily=Helvetica;fontSize=11;fontColor=default;" vertex="1" parent="1">
          <mxGeometry x="70" y="-205" width="100" height="40" as="geometry" />
        </mxCell>
        <mxCell id="jqzSuIZmgAgGuRS0_Z6t-111" value="AccountName2" style="ellipse;whiteSpace=wrap;html=1;align=center;fontStyle=4;fontFamily=Helvetica;fontSize=11;fontColor=default;" vertex="1" parent="1">
          <mxGeometry x="50" y="-365" width="100" height="40" as="geometry" />
        </mxCell>
        <mxCell id="jqzSuIZmgAgGuRS0_Z6t-117" style="edgeStyle=none;shape=connector;rounded=0;orthogonalLoop=1;jettySize=auto;html=1;exitX=0.5;exitY=1;exitDx=0;exitDy=0;entryX=0.25;entryY=0;entryDx=0;entryDy=0;labelBackgroundColor=default;strokeColor=default;align=center;verticalAlign=middle;fontFamily=Helvetica;fontSize=11;fontColor=default;endArrow=none;endFill=0;" edge="1" parent="1" source="jqzSuIZmgAgGuRS0_Z6t-112" target="jqzSuIZmgAgGuRS0_Z6t-109">
          <mxGeometry relative="1" as="geometry" />
        </mxCell>
        <mxCell id="jqzSuIZmgAgGuRS0_Z6t-112" value="LocationAddress1" style="ellipse;whiteSpace=wrap;html=1;align=center;fontStyle=4;fontFamily=Helvetica;fontSize=11;fontColor=default;" vertex="1" parent="1">
          <mxGeometry x="150" y="-365" width="100" height="40" as="geometry" />
        </mxCell>
        <mxCell id="jqzSuIZmgAgGuRS0_Z6t-118" style="edgeStyle=none;shape=connector;rounded=0;orthogonalLoop=1;jettySize=auto;html=1;exitX=0.5;exitY=1;exitDx=0;exitDy=0;entryX=0.5;entryY=0;entryDx=0;entryDy=0;labelBackgroundColor=default;strokeColor=default;align=center;verticalAlign=middle;fontFamily=Helvetica;fontSize=11;fontColor=default;endArrow=none;endFill=0;" edge="1" parent="1" source="jqzSuIZmgAgGuRS0_Z6t-113" target="jqzSuIZmgAgGuRS0_Z6t-109">
          <mxGeometry relative="1" as="geometry" />
        </mxCell>
        <mxCell id="jqzSuIZmgAgGuRS0_Z6t-113" value="LocationAddress2" style="ellipse;whiteSpace=wrap;html=1;align=center;fontStyle=4;fontFamily=Helvetica;fontSize=11;fontColor=default;" vertex="1" parent="1">
          <mxGeometry x="250" y="-365" width="100" height="40" as="geometry" />
        </mxCell>
        <mxCell id="jqzSuIZmgAgGuRS0_Z6t-114" style="edgeStyle=none;shape=connector;rounded=0;orthogonalLoop=1;jettySize=auto;html=1;exitX=1;exitY=1;exitDx=0;exitDy=0;labelBackgroundColor=default;strokeColor=default;align=center;verticalAlign=middle;fontFamily=Helvetica;fontSize=11;fontColor=default;endArrow=none;endFill=0;" edge="1" parent="1" source="jqzSuIZmgAgGuRS0_Z6t-111" target="jqzSuIZmgAgGuRS0_Z6t-111">
          <mxGeometry relative="1" as="geometry" />
        </mxCell>
        <mxCell id="jqzSuIZmgAgGuRS0_Z6t-116" style="edgeStyle=none;shape=connector;rounded=0;orthogonalLoop=1;jettySize=auto;html=1;exitX=0.5;exitY=1;exitDx=0;exitDy=0;entryX=0.157;entryY=0.05;entryDx=0;entryDy=0;entryPerimeter=0;labelBackgroundColor=default;strokeColor=default;align=center;verticalAlign=middle;fontFamily=Helvetica;fontSize=11;fontColor=default;endArrow=none;endFill=0;" edge="1" parent="1" source="jqzSuIZmgAgGuRS0_Z6t-111" target="jqzSuIZmgAgGuRS0_Z6t-109">
          <mxGeometry relative="1" as="geometry" />
        </mxCell>
        <mxCell id="jqzSuIZmgAgGuRS0_Z6t-122" style="edgeStyle=none;shape=connector;rounded=0;orthogonalLoop=1;jettySize=auto;html=1;exitX=0;exitY=0.5;exitDx=0;exitDy=0;entryX=1;entryY=0.5;entryDx=0;entryDy=0;labelBackgroundColor=default;strokeColor=default;align=center;verticalAlign=middle;fontFamily=Helvetica;fontSize=11;fontColor=default;endArrow=none;endFill=0;" edge="1" parent="1" source="jqzSuIZmgAgGuRS0_Z6t-119" target="jqzSuIZmgAgGuRS0_Z6t-109">
          <mxGeometry relative="1" as="geometry" />
        </mxCell>
        <mxCell id="jqzSuIZmgAgGuRS0_Z6t-119" value="LocationCity" style="ellipse;whiteSpace=wrap;html=1;align=center;fontStyle=4;fontFamily=Helvetica;fontSize=11;fontColor=default;" vertex="1" parent="1">
          <mxGeometry x="470" y="-365" width="100" height="40" as="geometry" />
        </mxCell>
        <mxCell id="jqzSuIZmgAgGuRS0_Z6t-123" style="edgeStyle=none;shape=connector;rounded=0;orthogonalLoop=1;jettySize=auto;html=1;exitX=0;exitY=0.5;exitDx=0;exitDy=0;entryX=1;entryY=0.75;entryDx=0;entryDy=0;labelBackgroundColor=default;strokeColor=default;align=center;verticalAlign=middle;fontFamily=Helvetica;fontSize=11;fontColor=default;endArrow=none;endFill=0;" edge="1" parent="1" source="jqzSuIZmgAgGuRS0_Z6t-120" target="jqzSuIZmgAgGuRS0_Z6t-109">
          <mxGeometry relative="1" as="geometry" />
        </mxCell>
        <mxCell id="jqzSuIZmgAgGuRS0_Z6t-120" value="LocationState" style="ellipse;whiteSpace=wrap;html=1;align=center;fontStyle=4;fontFamily=Helvetica;fontSize=11;fontColor=default;" vertex="1" parent="1">
          <mxGeometry x="480" y="-315" width="100" height="40" as="geometry" />
        </mxCell>
        <mxCell id="jqzSuIZmgAgGuRS0_Z6t-124" style="edgeStyle=none;shape=connector;rounded=0;orthogonalLoop=1;jettySize=auto;html=1;exitX=0;exitY=0.5;exitDx=0;exitDy=0;entryX=1;entryY=1;entryDx=0;entryDy=0;labelBackgroundColor=default;strokeColor=default;align=center;verticalAlign=middle;fontFamily=Helvetica;fontSize=11;fontColor=default;endArrow=none;endFill=0;" edge="1" parent="1" source="jqzSuIZmgAgGuRS0_Z6t-121" target="jqzSuIZmgAgGuRS0_Z6t-109">
          <mxGeometry relative="1" as="geometry" />
        </mxCell>
        <mxCell id="jqzSuIZmgAgGuRS0_Z6t-121" value="LocationZip" style="ellipse;whiteSpace=wrap;html=1;align=center;fontStyle=4;fontFamily=Helvetica;fontSize=11;fontColor=default;" vertex="1" parent="1">
          <mxGeometry x="480" y="-275" width="100" height="40" as="geometry" />
        </mxCell>
        <mxCell id="jqzSuIZmgAgGuRS0_Z6t-129" style="edgeStyle=none;shape=connector;rounded=0;orthogonalLoop=1;jettySize=auto;html=1;exitX=0.5;exitY=1;exitDx=0;exitDy=0;entryX=0.5;entryY=0;entryDx=0;entryDy=0;labelBackgroundColor=default;strokeColor=default;align=center;verticalAlign=middle;fontFamily=Helvetica;fontSize=11;fontColor=default;endArrow=none;endFill=0;" edge="1" parent="1" source="jqzSuIZmgAgGuRS0_Z6t-125" target="jqzSuIZmgAgGuRS0_Z6t-128">
          <mxGeometry relative="1" as="geometry" />
        </mxCell>
        <mxCell id="jqzSuIZmgAgGuRS0_Z6t-125" value="AccountRelation" style="shape=rhombus;perimeter=rhombusPerimeter;whiteSpace=wrap;html=1;align=center;fontFamily=Helvetica;fontSize=11;fontColor=default;" vertex="1" parent="1">
          <mxGeometry x="260" y="-70" width="120" height="60" as="geometry" />
        </mxCell>
        <mxCell id="jqzSuIZmgAgGuRS0_Z6t-128" value="RelationTypeDate" style="whiteSpace=wrap;html=1;align=center;fontFamily=Helvetica;fontSize=11;fontColor=default;" vertex="1" parent="1">
          <mxGeometry x="280" y="20" width="100" height="40" as="geometry" />
        </mxCell>
        <mxCell id="jqzSuIZmgAgGuRS0_Z6t-131" value="AccountEligibility" style="shape=ext;margin=3;double=1;whiteSpace=wrap;html=1;align=center;fontFamily=Helvetica;fontSize=11;fontColor=default;" vertex="1" parent="1">
          <mxGeometry x="100" y="15" width="100" height="40" as="geometry" />
        </mxCell>
        <mxCell id="jqzSuIZmgAgGuRS0_Z6t-134" style="edgeStyle=none;shape=connector;rounded=0;orthogonalLoop=1;jettySize=auto;html=1;exitX=0.5;exitY=1;exitDx=0;exitDy=0;entryX=0.5;entryY=0;entryDx=0;entryDy=0;labelBackgroundColor=default;strokeColor=default;align=center;verticalAlign=middle;fontFamily=Helvetica;fontSize=11;fontColor=default;endArrow=none;endFill=0;" edge="1" parent="1" source="jqzSuIZmgAgGuRS0_Z6t-132" target="jqzSuIZmgAgGuRS0_Z6t-131">
          <mxGeometry relative="1" as="geometry" />
        </mxCell>
        <mxCell id="jqzSuIZmgAgGuRS0_Z6t-132" value="hasEligibility" style="shape=rhombus;perimeter=rhombusPerimeter;whiteSpace=wrap;html=1;align=center;fontFamily=Helvetica;fontSize=11;fontColor=default;" vertex="1" parent="1">
          <mxGeometry x="120" y="-65" width="120" height="60" as="geometry" />
        </mxCell>
        <mxCell id="jqzSuIZmgAgGuRS0_Z6t-142" style="edgeStyle=none;shape=connector;rounded=0;orthogonalLoop=1;jettySize=auto;html=1;exitX=1;exitY=0.5;exitDx=0;exitDy=0;entryX=0;entryY=0.5;entryDx=0;entryDy=0;labelBackgroundColor=default;strokeColor=default;align=center;verticalAlign=middle;fontFamily=Helvetica;fontSize=11;fontColor=default;endArrow=none;endFill=0;" edge="1" parent="1" source="jqzSuIZmgAgGuRS0_Z6t-135" target="jqzSuIZmgAgGuRS0_Z6t-141">
          <mxGeometry relative="1" as="geometry" />
        </mxCell>
        <mxCell id="jqzSuIZmgAgGuRS0_Z6t-135" value="AccountAdmin" style="whiteSpace=wrap;html=1;align=center;fontFamily=Helvetica;fontSize=11;fontColor=default;" vertex="1" parent="1">
          <mxGeometry x="-130" y="-135" width="100" height="40" as="geometry" />
        </mxCell>
        <mxCell id="jqzSuIZmgAgGuRS0_Z6t-139" style="edgeStyle=none;shape=connector;rounded=0;orthogonalLoop=1;jettySize=auto;html=1;exitX=0.5;exitY=1;exitDx=0;exitDy=0;entryX=0;entryY=0;entryDx=0;entryDy=0;labelBackgroundColor=default;strokeColor=default;align=center;verticalAlign=middle;fontFamily=Helvetica;fontSize=11;fontColor=default;endArrow=none;endFill=0;" edge="1" parent="1" source="jqzSuIZmgAgGuRS0_Z6t-136" target="jqzSuIZmgAgGuRS0_Z6t-135">
          <mxGeometry relative="1" as="geometry" />
        </mxCell>
        <mxCell id="jqzSuIZmgAgGuRS0_Z6t-136" value="AdminLstName" style="ellipse;whiteSpace=wrap;html=1;align=center;fontStyle=4;fontFamily=Helvetica;fontSize=11;fontColor=default;" vertex="1" parent="1">
          <mxGeometry x="-220" y="-205" width="100" height="40" as="geometry" />
        </mxCell>
        <mxCell id="jqzSuIZmgAgGuRS0_Z6t-140" style="edgeStyle=none;shape=connector;rounded=0;orthogonalLoop=1;jettySize=auto;html=1;exitX=0.5;exitY=1;exitDx=0;exitDy=0;entryX=0.25;entryY=0;entryDx=0;entryDy=0;labelBackgroundColor=default;strokeColor=default;align=center;verticalAlign=middle;fontFamily=Helvetica;fontSize=11;fontColor=default;endArrow=none;endFill=0;" edge="1" parent="1" source="jqzSuIZmgAgGuRS0_Z6t-138" target="jqzSuIZmgAgGuRS0_Z6t-135">
          <mxGeometry relative="1" as="geometry" />
        </mxCell>
        <mxCell id="jqzSuIZmgAgGuRS0_Z6t-138" value="AdminFirstName" style="ellipse;whiteSpace=wrap;html=1;align=center;fontStyle=4;fontFamily=Helvetica;fontSize=11;fontColor=default;" vertex="1" parent="1">
          <mxGeometry x="-120" y="-205" width="100" height="40" as="geometry" />
        </mxCell>
        <mxCell id="jqzSuIZmgAgGuRS0_Z6t-143" style="edgeStyle=none;shape=connector;rounded=0;orthogonalLoop=1;jettySize=auto;html=1;exitX=1;exitY=0.5;exitDx=0;exitDy=0;entryX=0;entryY=0.25;entryDx=0;entryDy=0;labelBackgroundColor=default;strokeColor=default;align=center;verticalAlign=middle;fontFamily=Helvetica;fontSize=11;fontColor=default;endArrow=none;endFill=0;" edge="1" parent="1" source="jqzSuIZmgAgGuRS0_Z6t-141" target="jqzSuIZmgAgGuRS0_Z6t-109">
          <mxGeometry relative="1" as="geometry" />
        </mxCell>
        <mxCell id="jqzSuIZmgAgGuRS0_Z6t-141" value="Acct_AcctAdmin" style="shape=rhombus;perimeter=rhombusPerimeter;whiteSpace=wrap;html=1;align=center;fontFamily=Helvetica;fontSize=11;fontColor=default;" vertex="1" parent="1">
          <mxGeometry y="-145" width="120" height="60" as="geometry" />
        </mxCell>
        <mxCell id="jqzSuIZmgAgGuRS0_Z6t-148" style="edgeStyle=none;shape=connector;rounded=0;orthogonalLoop=1;jettySize=auto;html=1;exitX=0.25;exitY=1;exitDx=0;exitDy=0;entryX=0.5;entryY=0;entryDx=0;entryDy=0;labelBackgroundColor=default;strokeColor=default;align=center;verticalAlign=middle;fontFamily=Helvetica;fontSize=11;fontColor=default;endArrow=none;endFill=0;" edge="1" parent="1" source="jqzSuIZmgAgGuRS0_Z6t-146" target="jqzSuIZmgAgGuRS0_Z6t-147">
          <mxGeometry relative="1" as="geometry" />
        </mxCell>
        <mxCell id="jqzSuIZmgAgGuRS0_Z6t-150" style="edgeStyle=none;shape=connector;rounded=0;orthogonalLoop=1;jettySize=auto;html=1;exitX=0.75;exitY=1;exitDx=0;exitDy=0;entryX=0.5;entryY=0;entryDx=0;entryDy=0;labelBackgroundColor=default;strokeColor=default;align=center;verticalAlign=middle;fontFamily=Helvetica;fontSize=11;fontColor=default;endArrow=none;endFill=0;" edge="1" parent="1" source="jqzSuIZmgAgGuRS0_Z6t-146" target="jqzSuIZmgAgGuRS0_Z6t-149">
          <mxGeometry relative="1" as="geometry" />
        </mxCell>
        <mxCell id="jqzSuIZmgAgGuRS0_Z6t-151" style="edgeStyle=none;shape=connector;rounded=0;orthogonalLoop=1;jettySize=auto;html=1;exitX=1;exitY=0.5;exitDx=0;exitDy=0;entryX=0.5;entryY=1;entryDx=0;entryDy=0;labelBackgroundColor=default;strokeColor=default;align=center;verticalAlign=middle;fontFamily=Helvetica;fontSize=11;fontColor=default;endArrow=none;endFill=0;" edge="1" parent="1" source="jqzSuIZmgAgGuRS0_Z6t-146" target="jqzSuIZmgAgGuRS0_Z6t-141">
          <mxGeometry relative="1" as="geometry" />
        </mxCell>
        <mxCell id="jqzSuIZmgAgGuRS0_Z6t-195" style="edgeStyle=orthogonalEdgeStyle;shape=connector;rounded=0;orthogonalLoop=1;jettySize=auto;html=1;exitX=0.5;exitY=1;exitDx=0;exitDy=0;entryX=0;entryY=0.5;entryDx=0;entryDy=0;labelBackgroundColor=default;strokeColor=default;align=center;verticalAlign=middle;fontFamily=Helvetica;fontSize=11;fontColor=default;endArrow=none;endFill=0;" edge="1" parent="1" source="jqzSuIZmgAgGuRS0_Z6t-146" target="jqzSuIZmgAgGuRS0_Z6t-194">
          <mxGeometry relative="1" as="geometry" />
        </mxCell>
        <mxCell id="jqzSuIZmgAgGuRS0_Z6t-146" value="AdminRole" style="whiteSpace=wrap;html=1;align=center;fontFamily=Helvetica;fontSize=11;fontColor=default;" vertex="1" parent="1">
          <mxGeometry x="-130" y="-55" width="100" height="40" as="geometry" />
        </mxCell>
        <mxCell id="jqzSuIZmgAgGuRS0_Z6t-147" value="AdminRole" style="ellipse;whiteSpace=wrap;html=1;align=center;fontStyle=4;fontFamily=Helvetica;fontSize=11;fontColor=default;" vertex="1" parent="1">
          <mxGeometry x="-210" y="15" width="100" height="40" as="geometry" />
        </mxCell>
        <mxCell id="jqzSuIZmgAgGuRS0_Z6t-149" value="AdminDescription" style="ellipse;whiteSpace=wrap;html=1;align=center;fontFamily=Helvetica;fontSize=11;fontColor=default;" vertex="1" parent="1">
          <mxGeometry x="-70" y="15" width="100" height="40" as="geometry" />
        </mxCell>
        <mxCell id="jqzSuIZmgAgGuRS0_Z6t-156" style="edgeStyle=none;shape=connector;rounded=0;orthogonalLoop=1;jettySize=auto;html=1;exitX=0;exitY=0.5;exitDx=0;exitDy=0;entryX=0.75;entryY=0;entryDx=0;entryDy=0;labelBackgroundColor=default;strokeColor=default;align=center;verticalAlign=middle;fontFamily=Helvetica;fontSize=11;fontColor=default;endArrow=none;endFill=0;" edge="1" parent="1" source="jqzSuIZmgAgGuRS0_Z6t-152" target="SDGVXNkJ4wVJUg49SY7T-4">
          <mxGeometry relative="1" as="geometry" />
        </mxCell>
        <mxCell id="jqzSuIZmgAgGuRS0_Z6t-157" style="edgeStyle=none;shape=connector;rounded=0;orthogonalLoop=1;jettySize=auto;html=1;exitX=1;exitY=0.5;exitDx=0;exitDy=0;entryX=0;entryY=0;entryDx=0;entryDy=0;labelBackgroundColor=default;strokeColor=default;align=center;verticalAlign=middle;fontFamily=Helvetica;fontSize=11;fontColor=default;endArrow=none;endFill=0;" edge="1" parent="1" source="jqzSuIZmgAgGuRS0_Z6t-152" target="jqzSuIZmgAgGuRS0_Z6t-109">
          <mxGeometry relative="1" as="geometry" />
        </mxCell>
        <mxCell id="jqzSuIZmgAgGuRS0_Z6t-211" style="edgeStyle=none;shape=connector;rounded=0;orthogonalLoop=1;jettySize=auto;html=1;exitX=0;exitY=0;exitDx=0;exitDy=0;entryX=1;entryY=1;entryDx=0;entryDy=0;labelBackgroundColor=default;strokeColor=default;align=center;verticalAlign=middle;fontFamily=Helvetica;fontSize=11;fontColor=default;endArrow=none;endFill=0;" edge="1" parent="1" source="jqzSuIZmgAgGuRS0_Z6t-152" target="jqzSuIZmgAgGuRS0_Z6t-158">
          <mxGeometry relative="1" as="geometry" />
        </mxCell>
        <mxCell id="jqzSuIZmgAgGuRS0_Z6t-152" value="Account_Member" style="shape=rhombus;perimeter=rhombusPerimeter;whiteSpace=wrap;html=1;align=center;fontFamily=Helvetica;fontSize=11;fontColor=default;" vertex="1" parent="1">
          <mxGeometry x="-115" y="-375" width="120" height="60" as="geometry" />
        </mxCell>
        <mxCell id="jqzSuIZmgAgGuRS0_Z6t-158" value="FSAContributeamont" style="ellipse;whiteSpace=wrap;html=1;align=center;fontFamily=Helvetica;fontSize=11;fontColor=default;" vertex="1" parent="1">
          <mxGeometry x="-280" y="-425" width="100" height="40" as="geometry" />
        </mxCell>
        <mxCell id="jqzSuIZmgAgGuRS0_Z6t-161" value="EndDate" style="ellipse;whiteSpace=wrap;html=1;align=center;fontFamily=Helvetica;fontSize=11;fontColor=default;" vertex="1" parent="1">
          <mxGeometry x="-135" y="-425" width="100" height="40" as="geometry" />
        </mxCell>
        <mxCell id="jqzSuIZmgAgGuRS0_Z6t-162" style="edgeStyle=none;shape=connector;rounded=0;orthogonalLoop=1;jettySize=auto;html=1;exitX=0.5;exitY=1;exitDx=0;exitDy=0;entryX=0.439;entryY=0.022;entryDx=0;entryDy=0;entryPerimeter=0;labelBackgroundColor=default;strokeColor=default;align=center;verticalAlign=middle;fontFamily=Helvetica;fontSize=11;fontColor=default;endArrow=none;endFill=0;" edge="1" parent="1" source="jqzSuIZmgAgGuRS0_Z6t-161" target="jqzSuIZmgAgGuRS0_Z6t-152">
          <mxGeometry relative="1" as="geometry" />
        </mxCell>
        <mxCell id="jqzSuIZmgAgGuRS0_Z6t-164" style="edgeStyle=none;shape=connector;rounded=0;orthogonalLoop=1;jettySize=auto;html=1;exitX=0.5;exitY=1;exitDx=0;exitDy=0;labelBackgroundColor=default;strokeColor=default;align=center;verticalAlign=middle;fontFamily=Helvetica;fontSize=11;fontColor=default;endArrow=none;endFill=0;" edge="1" parent="1" source="jqzSuIZmgAgGuRS0_Z6t-163" target="jqzSuIZmgAgGuRS0_Z6t-152">
          <mxGeometry relative="1" as="geometry" />
        </mxCell>
        <mxCell id="jqzSuIZmgAgGuRS0_Z6t-163" value="CustAccountDepartName" style="ellipse;whiteSpace=wrap;html=1;align=center;fontFamily=Helvetica;fontSize=11;fontColor=default;" vertex="1" parent="1">
          <mxGeometry x="-5" y="-425" width="160" height="40" as="geometry" />
        </mxCell>
        <mxCell id="jqzSuIZmgAgGuRS0_Z6t-174" style="edgeStyle=none;shape=connector;rounded=0;orthogonalLoop=1;jettySize=auto;html=1;exitX=0.5;exitY=1;exitDx=0;exitDy=0;entryX=0.5;entryY=0;entryDx=0;entryDy=0;labelBackgroundColor=default;strokeColor=default;align=center;verticalAlign=middle;fontFamily=Helvetica;fontSize=11;fontColor=default;endArrow=none;endFill=0;" edge="1" parent="1" source="jqzSuIZmgAgGuRS0_Z6t-165" target="jqzSuIZmgAgGuRS0_Z6t-167">
          <mxGeometry relative="1" as="geometry" />
        </mxCell>
        <mxCell id="jqzSuIZmgAgGuRS0_Z6t-175" style="edgeStyle=none;shape=connector;rounded=0;orthogonalLoop=1;jettySize=auto;html=1;exitX=0.75;exitY=1;exitDx=0;exitDy=0;entryX=0.5;entryY=0;entryDx=0;entryDy=0;labelBackgroundColor=default;strokeColor=default;align=center;verticalAlign=middle;fontFamily=Helvetica;fontSize=11;fontColor=default;endArrow=none;endFill=0;" edge="1" parent="1" source="jqzSuIZmgAgGuRS0_Z6t-165" target="jqzSuIZmgAgGuRS0_Z6t-168">
          <mxGeometry relative="1" as="geometry" />
        </mxCell>
        <mxCell id="jqzSuIZmgAgGuRS0_Z6t-176" style="edgeStyle=none;shape=connector;rounded=0;orthogonalLoop=1;jettySize=auto;html=1;exitX=1;exitY=1;exitDx=0;exitDy=0;entryX=0;entryY=0;entryDx=0;entryDy=0;labelBackgroundColor=default;strokeColor=default;align=center;verticalAlign=middle;fontFamily=Helvetica;fontSize=11;fontColor=default;endArrow=none;endFill=0;" edge="1" parent="1" source="jqzSuIZmgAgGuRS0_Z6t-165" target="jqzSuIZmgAgGuRS0_Z6t-169">
          <mxGeometry relative="1" as="geometry" />
        </mxCell>
        <mxCell id="jqzSuIZmgAgGuRS0_Z6t-177" style="edgeStyle=none;shape=connector;rounded=0;orthogonalLoop=1;jettySize=auto;html=1;exitX=1;exitY=0.5;exitDx=0;exitDy=0;entryX=0;entryY=0.5;entryDx=0;entryDy=0;labelBackgroundColor=default;strokeColor=default;align=center;verticalAlign=middle;fontFamily=Helvetica;fontSize=11;fontColor=default;endArrow=none;endFill=0;" edge="1" parent="1" source="jqzSuIZmgAgGuRS0_Z6t-165" target="jqzSuIZmgAgGuRS0_Z6t-170">
          <mxGeometry relative="1" as="geometry" />
        </mxCell>
        <mxCell id="jqzSuIZmgAgGuRS0_Z6t-179" style="edgeStyle=none;shape=connector;rounded=0;orthogonalLoop=1;jettySize=auto;html=1;exitX=1;exitY=0.5;exitDx=0;exitDy=0;entryX=0;entryY=0.5;entryDx=0;entryDy=0;labelBackgroundColor=default;strokeColor=default;align=center;verticalAlign=middle;fontFamily=Helvetica;fontSize=11;fontColor=default;endArrow=none;endFill=0;" edge="1" parent="1" source="jqzSuIZmgAgGuRS0_Z6t-165" target="jqzSuIZmgAgGuRS0_Z6t-171">
          <mxGeometry relative="1" as="geometry" />
        </mxCell>
        <mxCell id="jqzSuIZmgAgGuRS0_Z6t-165" value="BillingAccount-h" style="whiteSpace=wrap;html=1;align=center;fontFamily=Helvetica;fontSize=11;fontColor=default;" vertex="1" parent="1">
          <mxGeometry x="470" y="100" width="100" height="45" as="geometry" />
        </mxCell>
        <mxCell id="jqzSuIZmgAgGuRS0_Z6t-173" style="edgeStyle=none;shape=connector;rounded=0;orthogonalLoop=1;jettySize=auto;html=1;exitX=1;exitY=0;exitDx=0;exitDy=0;entryX=0.25;entryY=1;entryDx=0;entryDy=0;labelBackgroundColor=default;strokeColor=default;align=center;verticalAlign=middle;fontFamily=Helvetica;fontSize=11;fontColor=default;endArrow=none;endFill=0;" edge="1" parent="1" source="jqzSuIZmgAgGuRS0_Z6t-166" target="jqzSuIZmgAgGuRS0_Z6t-165">
          <mxGeometry relative="1" as="geometry" />
        </mxCell>
        <mxCell id="jqzSuIZmgAgGuRS0_Z6t-166" value="BaccName" style="ellipse;whiteSpace=wrap;html=1;align=center;fontStyle=4;fontFamily=Helvetica;fontSize=11;fontColor=default;" vertex="1" parent="1">
          <mxGeometry x="320" y="170" width="100" height="40" as="geometry" />
        </mxCell>
        <mxCell id="jqzSuIZmgAgGuRS0_Z6t-167" value="BAccName2" style="ellipse;whiteSpace=wrap;html=1;align=center;fontStyle=4;fontFamily=Helvetica;fontSize=11;fontColor=default;" vertex="1" parent="1">
          <mxGeometry x="420" y="170" width="100" height="40" as="geometry" />
        </mxCell>
        <mxCell id="jqzSuIZmgAgGuRS0_Z6t-168" value="BillingAddress1" style="ellipse;whiteSpace=wrap;html=1;align=center;fontStyle=4;fontFamily=Helvetica;fontSize=11;fontColor=default;" vertex="1" parent="1">
          <mxGeometry x="520" y="170" width="100" height="40" as="geometry" />
        </mxCell>
        <mxCell id="jqzSuIZmgAgGuRS0_Z6t-169" value="BillingAddress2" style="ellipse;whiteSpace=wrap;html=1;align=center;fontStyle=4;fontFamily=Helvetica;fontSize=11;fontColor=default;" vertex="1" parent="1">
          <mxGeometry x="620" y="170" width="100" height="40" as="geometry" />
        </mxCell>
        <mxCell id="jqzSuIZmgAgGuRS0_Z6t-170" value="BillingCity" style="ellipse;whiteSpace=wrap;html=1;align=center;fontStyle=4;fontFamily=Helvetica;fontSize=11;fontColor=default;" vertex="1" parent="1">
          <mxGeometry x="640" y="120" width="100" height="40" as="geometry" />
        </mxCell>
        <mxCell id="jqzSuIZmgAgGuRS0_Z6t-171" value="BillingState" style="ellipse;whiteSpace=wrap;html=1;align=center;fontStyle=4;fontFamily=Helvetica;fontSize=11;fontColor=default;" vertex="1" parent="1">
          <mxGeometry x="640" y="80" width="100" height="40" as="geometry" />
        </mxCell>
        <mxCell id="jqzSuIZmgAgGuRS0_Z6t-180" style="edgeStyle=none;shape=connector;rounded=0;orthogonalLoop=1;jettySize=auto;html=1;exitX=0;exitY=0.5;exitDx=0;exitDy=0;labelBackgroundColor=default;strokeColor=default;align=center;verticalAlign=middle;fontFamily=Helvetica;fontSize=11;fontColor=default;endArrow=none;endFill=0;" edge="1" parent="1" source="jqzSuIZmgAgGuRS0_Z6t-172">
          <mxGeometry relative="1" as="geometry">
            <mxPoint x="570" y="120" as="targetPoint" />
          </mxGeometry>
        </mxCell>
        <mxCell id="jqzSuIZmgAgGuRS0_Z6t-172" value="BillingZip" style="ellipse;whiteSpace=wrap;html=1;align=center;fontStyle=4;fontFamily=Helvetica;fontSize=11;fontColor=default;" vertex="1" parent="1">
          <mxGeometry x="640" y="40" width="100" height="40" as="geometry" />
        </mxCell>
        <mxCell id="jqzSuIZmgAgGuRS0_Z6t-182" style="edgeStyle=none;shape=connector;rounded=0;orthogonalLoop=1;jettySize=auto;html=1;exitX=0.5;exitY=1;exitDx=0;exitDy=0;entryX=0.5;entryY=0;entryDx=0;entryDy=0;labelBackgroundColor=default;strokeColor=default;align=center;verticalAlign=middle;fontFamily=Helvetica;fontSize=11;fontColor=default;endArrow=none;endFill=0;" edge="1" parent="1" source="jqzSuIZmgAgGuRS0_Z6t-181" target="jqzSuIZmgAgGuRS0_Z6t-165">
          <mxGeometry relative="1" as="geometry" />
        </mxCell>
        <mxCell id="jqzSuIZmgAgGuRS0_Z6t-197" style="edgeStyle=none;shape=connector;rounded=0;orthogonalLoop=1;jettySize=auto;html=1;exitX=0;exitY=0.5;exitDx=0;exitDy=0;entryX=1;entryY=0.5;entryDx=0;entryDy=0;labelBackgroundColor=default;strokeColor=default;align=center;verticalAlign=middle;fontFamily=Helvetica;fontSize=11;fontColor=default;endArrow=none;endFill=0;" edge="1" parent="1" source="jqzSuIZmgAgGuRS0_Z6t-181" target="jqzSuIZmgAgGuRS0_Z6t-109">
          <mxGeometry relative="1" as="geometry" />
        </mxCell>
        <mxCell id="jqzSuIZmgAgGuRS0_Z6t-181" value="Account_BillingAccount" style="shape=rhombus;perimeter=rhombusPerimeter;whiteSpace=wrap;html=1;align=center;fontFamily=Helvetica;fontSize=11;fontColor=default;" vertex="1" parent="1">
          <mxGeometry x="400" y="-20" width="120" height="60" as="geometry" />
        </mxCell>
        <mxCell id="jqzSuIZmgAgGuRS0_Z6t-190" value="RelationshipType" style="ellipse;whiteSpace=wrap;html=1;align=center;fontStyle=4;fontFamily=Helvetica;fontSize=11;fontColor=default;" vertex="1" parent="1">
          <mxGeometry x="370" y="-90" width="100" height="40" as="geometry" />
        </mxCell>
        <mxCell id="jqzSuIZmgAgGuRS0_Z6t-191" style="edgeStyle=none;shape=connector;rounded=0;orthogonalLoop=1;jettySize=auto;html=1;exitX=0.5;exitY=1;exitDx=0;exitDy=0;entryX=0.356;entryY=0.156;entryDx=0;entryDy=0;entryPerimeter=0;labelBackgroundColor=default;strokeColor=default;align=center;verticalAlign=middle;fontFamily=Helvetica;fontSize=11;fontColor=default;endArrow=none;endFill=0;" edge="1" parent="1" source="jqzSuIZmgAgGuRS0_Z6t-190" target="jqzSuIZmgAgGuRS0_Z6t-181">
          <mxGeometry relative="1" as="geometry" />
        </mxCell>
        <mxCell id="jqzSuIZmgAgGuRS0_Z6t-193" style="edgeStyle=none;shape=connector;rounded=0;orthogonalLoop=1;jettySize=auto;html=1;exitX=0.5;exitY=1;exitDx=0;exitDy=0;entryX=1;entryY=0;entryDx=0;entryDy=0;labelBackgroundColor=default;strokeColor=default;align=center;verticalAlign=middle;fontFamily=Helvetica;fontSize=11;fontColor=default;endArrow=none;endFill=0;" edge="1" parent="1" source="jqzSuIZmgAgGuRS0_Z6t-192" target="jqzSuIZmgAgGuRS0_Z6t-181">
          <mxGeometry relative="1" as="geometry" />
        </mxCell>
        <mxCell id="jqzSuIZmgAgGuRS0_Z6t-192" value="StartDate" style="ellipse;whiteSpace=wrap;html=1;align=center;fontStyle=4;fontFamily=Helvetica;fontSize=11;fontColor=default;" vertex="1" parent="1">
          <mxGeometry x="470" y="-90" width="100" height="40" as="geometry" />
        </mxCell>
        <mxCell id="jqzSuIZmgAgGuRS0_Z6t-196" style="edgeStyle=orthogonalEdgeStyle;shape=connector;rounded=0;orthogonalLoop=1;jettySize=auto;html=1;exitX=1;exitY=0.5;exitDx=0;exitDy=0;entryX=0;entryY=0.5;entryDx=0;entryDy=0;labelBackgroundColor=default;strokeColor=default;align=center;verticalAlign=middle;fontFamily=Helvetica;fontSize=11;fontColor=default;endArrow=none;endFill=0;" edge="1" parent="1" source="jqzSuIZmgAgGuRS0_Z6t-194" target="jqzSuIZmgAgGuRS0_Z6t-165">
          <mxGeometry relative="1" as="geometry" />
        </mxCell>
        <mxCell id="jqzSuIZmgAgGuRS0_Z6t-194" value="Bacct_BacctAdmin" style="shape=rhombus;perimeter=rhombusPerimeter;whiteSpace=wrap;html=1;align=center;fontFamily=Helvetica;fontSize=11;fontColor=default;" vertex="1" parent="1">
          <mxGeometry x="10" y="92.5" width="120" height="60" as="geometry" />
        </mxCell>
        <mxCell id="jqzSuIZmgAgGuRS0_Z6t-203" style="edgeStyle=none;shape=connector;rounded=0;orthogonalLoop=1;jettySize=auto;html=1;exitX=0.5;exitY=1;exitDx=0;exitDy=0;entryX=0.5;entryY=0;entryDx=0;entryDy=0;labelBackgroundColor=default;strokeColor=default;align=center;verticalAlign=middle;fontFamily=Helvetica;fontSize=11;fontColor=default;endArrow=none;endFill=0;" edge="1" parent="1" source="jqzSuIZmgAgGuRS0_Z6t-198" target="jqzSuIZmgAgGuRS0_Z6t-200">
          <mxGeometry relative="1" as="geometry" />
        </mxCell>
        <mxCell id="jqzSuIZmgAgGuRS0_Z6t-205" style="edgeStyle=none;shape=connector;rounded=0;orthogonalLoop=1;jettySize=auto;html=1;exitX=0.5;exitY=1;exitDx=0;exitDy=0;entryX=0.5;entryY=0;entryDx=0;entryDy=0;labelBackgroundColor=default;strokeColor=default;align=center;verticalAlign=middle;fontFamily=Helvetica;fontSize=11;fontColor=default;endArrow=none;endFill=0;" edge="1" parent="1" source="jqzSuIZmgAgGuRS0_Z6t-198" target="jqzSuIZmgAgGuRS0_Z6t-201">
          <mxGeometry relative="1" as="geometry" />
        </mxCell>
        <mxCell id="jqzSuIZmgAgGuRS0_Z6t-206" style="edgeStyle=none;shape=connector;rounded=0;orthogonalLoop=1;jettySize=auto;html=1;exitX=0.75;exitY=1;exitDx=0;exitDy=0;entryX=0.5;entryY=0;entryDx=0;entryDy=0;labelBackgroundColor=default;strokeColor=default;align=center;verticalAlign=middle;fontFamily=Helvetica;fontSize=11;fontColor=default;endArrow=none;endFill=0;" edge="1" parent="1" source="jqzSuIZmgAgGuRS0_Z6t-198" target="jqzSuIZmgAgGuRS0_Z6t-202">
          <mxGeometry relative="1" as="geometry" />
        </mxCell>
        <mxCell id="jqzSuIZmgAgGuRS0_Z6t-198" value="BillingAccountEligibility" style="shape=ext;margin=3;double=1;whiteSpace=wrap;html=1;align=center;fontFamily=Helvetica;fontSize=11;fontColor=default;" vertex="1" parent="1">
          <mxGeometry x="770" y="-25" width="150" height="40" as="geometry" />
        </mxCell>
        <mxCell id="jqzSuIZmgAgGuRS0_Z6t-200" value="&lt;span style=&quot;border-bottom: 1px dotted&quot;&gt;StartDate&lt;/span&gt;" style="ellipse;whiteSpace=wrap;html=1;align=center;fontFamily=Helvetica;fontSize=11;fontColor=default;" vertex="1" parent="1">
          <mxGeometry x="760" y="40" width="100" height="40" as="geometry" />
        </mxCell>
        <mxCell id="jqzSuIZmgAgGuRS0_Z6t-201" value="EndDate" style="ellipse;whiteSpace=wrap;html=1;align=center;fontFamily=Helvetica;fontSize=11;fontColor=default;" vertex="1" parent="1">
          <mxGeometry x="860" y="40" width="100" height="40" as="geometry" />
        </mxCell>
        <mxCell id="jqzSuIZmgAgGuRS0_Z6t-202" value="Description" style="ellipse;whiteSpace=wrap;html=1;align=center;fontFamily=Helvetica;fontSize=11;fontColor=default;" vertex="1" parent="1">
          <mxGeometry x="960" y="40" width="100" height="40" as="geometry" />
        </mxCell>
        <mxCell id="jqzSuIZmgAgGuRS0_Z6t-208" style="edgeStyle=none;shape=connector;rounded=0;orthogonalLoop=1;jettySize=auto;html=1;exitX=1;exitY=0.5;exitDx=0;exitDy=0;entryX=0;entryY=0.5;entryDx=0;entryDy=0;labelBackgroundColor=default;strokeColor=default;align=center;verticalAlign=middle;fontFamily=Helvetica;fontSize=11;fontColor=default;endArrow=none;endFill=0;" edge="1" parent="1" source="jqzSuIZmgAgGuRS0_Z6t-207" target="jqzSuIZmgAgGuRS0_Z6t-198">
          <mxGeometry relative="1" as="geometry" />
        </mxCell>
        <mxCell id="jqzSuIZmgAgGuRS0_Z6t-209" style="edgeStyle=none;shape=connector;rounded=0;orthogonalLoop=1;jettySize=auto;html=1;exitX=0;exitY=0.5;exitDx=0;exitDy=0;entryX=0.5;entryY=0;entryDx=0;entryDy=0;labelBackgroundColor=default;strokeColor=default;align=center;verticalAlign=middle;fontFamily=Helvetica;fontSize=11;fontColor=default;endArrow=none;endFill=0;" edge="1" parent="1" source="jqzSuIZmgAgGuRS0_Z6t-207" target="jqzSuIZmgAgGuRS0_Z6t-165">
          <mxGeometry relative="1" as="geometry" />
        </mxCell>
        <mxCell id="jqzSuIZmgAgGuRS0_Z6t-207" value="hasAE" style="shape=rhombus;perimeter=rhombusPerimeter;whiteSpace=wrap;html=1;align=center;fontFamily=Helvetica;fontSize=11;fontColor=default;" vertex="1" parent="1">
          <mxGeometry x="610" y="-35" width="120" height="60" as="geometry" />
        </mxCell>
        <mxCell id="jqzSuIZmgAgGuRS0_Z6t-213" style="edgeStyle=orthogonalEdgeStyle;shape=connector;rounded=0;orthogonalLoop=1;jettySize=auto;html=1;exitX=0.5;exitY=0;exitDx=0;exitDy=0;entryX=1;entryY=0.5;entryDx=0;entryDy=0;labelBackgroundColor=default;strokeColor=default;align=center;verticalAlign=middle;fontFamily=Helvetica;fontSize=11;fontColor=default;endArrow=none;endFill=0;" edge="1" parent="1" source="jqzSuIZmgAgGuRS0_Z6t-210" target="jqzSuIZmgAgGuRS0_Z6t-109">
          <mxGeometry relative="1" as="geometry" />
        </mxCell>
        <mxCell id="jqzSuIZmgAgGuRS0_Z6t-215" style="edgeStyle=orthogonalEdgeStyle;shape=connector;rounded=0;orthogonalLoop=1;jettySize=auto;html=1;exitX=1;exitY=0.5;exitDx=0;exitDy=0;entryX=0.5;entryY=0;entryDx=0;entryDy=0;labelBackgroundColor=default;strokeColor=default;align=center;verticalAlign=middle;fontFamily=Helvetica;fontSize=11;fontColor=default;endArrow=none;endFill=0;" edge="1" parent="1" source="jqzSuIZmgAgGuRS0_Z6t-210" target="jqzSuIZmgAgGuRS0_Z6t-83">
          <mxGeometry relative="1" as="geometry">
            <Array as="points">
              <mxPoint x="1060" y="-55" />
            </Array>
          </mxGeometry>
        </mxCell>
        <mxCell id="jqzSuIZmgAgGuRS0_Z6t-210" value="AccountLegacyAlias" style="shape=rhombus;perimeter=rhombusPerimeter;whiteSpace=wrap;html=1;align=center;fontFamily=Helvetica;fontSize=11;fontColor=default;" vertex="1" parent="1">
          <mxGeometry x="927.5" y="-85" width="120" height="60" as="geometry" />
        </mxCell>
        <mxCell id="jqzSuIZmgAgGuRS0_Z6t-218" style="edgeStyle=none;shape=connector;rounded=0;orthogonalLoop=1;jettySize=auto;html=1;exitX=0.5;exitY=1;exitDx=0;exitDy=0;entryX=1;entryY=0;entryDx=0;entryDy=0;labelBackgroundColor=default;strokeColor=default;align=center;verticalAlign=middle;fontFamily=Helvetica;fontSize=11;fontColor=default;endArrow=none;endFill=0;" edge="1" parent="1" source="jqzSuIZmgAgGuRS0_Z6t-216" target="jqzSuIZmgAgGuRS0_Z6t-210">
          <mxGeometry relative="1" as="geometry" />
        </mxCell>
        <mxCell id="jqzSuIZmgAgGuRS0_Z6t-216" value="AliasSource" style="ellipse;whiteSpace=wrap;html=1;align=center;fontStyle=4;fontFamily=Helvetica;fontSize=11;fontColor=default;" vertex="1" parent="1">
          <mxGeometry x="1007.5" y="-145" width="100" height="40" as="geometry" />
        </mxCell>
        <mxCell id="jqzSuIZmgAgGuRS0_Z6t-219" style="edgeStyle=none;shape=connector;rounded=0;orthogonalLoop=1;jettySize=auto;html=1;exitX=0.5;exitY=1;exitDx=0;exitDy=0;entryX=1;entryY=0;entryDx=0;entryDy=0;labelBackgroundColor=default;strokeColor=default;align=center;verticalAlign=middle;fontFamily=Helvetica;fontSize=11;fontColor=default;endArrow=none;endFill=0;" edge="1" parent="1" source="jqzSuIZmgAgGuRS0_Z6t-217" target="jqzSuIZmgAgGuRS0_Z6t-210">
          <mxGeometry relative="1" as="geometry" />
        </mxCell>
        <mxCell id="jqzSuIZmgAgGuRS0_Z6t-217" value="AliasID" style="ellipse;whiteSpace=wrap;html=1;align=center;fontStyle=4;fontFamily=Helvetica;fontSize=11;fontColor=default;" vertex="1" parent="1">
          <mxGeometry x="1070" y="-100" width="100" height="40" as="geometry" />
        </mxCell>
        <mxCell id="jqzSuIZmgAgGuRS0_Z6t-221" style="edgeStyle=none;shape=connector;rounded=0;orthogonalLoop=1;jettySize=auto;html=1;exitX=0.5;exitY=1;exitDx=0;exitDy=0;entryX=0;entryY=0;entryDx=0;entryDy=0;labelBackgroundColor=default;strokeColor=default;align=center;verticalAlign=middle;fontFamily=Helvetica;fontSize=11;fontColor=default;endArrow=none;endFill=0;" edge="1" parent="1" source="jqzSuIZmgAgGuRS0_Z6t-220" target="jqzSuIZmgAgGuRS0_Z6t-210">
          <mxGeometry relative="1" as="geometry" />
        </mxCell>
        <mxCell id="jqzSuIZmgAgGuRS0_Z6t-220" value="AliasName" style="ellipse;whiteSpace=wrap;html=1;align=center;fontFamily=Helvetica;fontSize=11;fontColor=default;" vertex="1" parent="1">
          <mxGeometry x="850" y="-125" width="100" height="40" as="geometry" />
        </mxCell>
        <mxCell id="jqzSuIZmgAgGuRS0_Z6t-226" style="edgeStyle=none;shape=connector;rounded=0;orthogonalLoop=1;jettySize=auto;html=1;exitX=1;exitY=0.5;exitDx=0;exitDy=0;entryX=0;entryY=0.5;entryDx=0;entryDy=0;labelBackgroundColor=default;strokeColor=default;align=center;verticalAlign=middle;fontFamily=Helvetica;fontSize=11;fontColor=default;endArrow=none;endFill=0;" edge="1" parent="1" source="jqzSuIZmgAgGuRS0_Z6t-222" target="jqzSuIZmgAgGuRS0_Z6t-225">
          <mxGeometry relative="1" as="geometry" />
        </mxCell>
        <mxCell id="jqzSuIZmgAgGuRS0_Z6t-378" style="edgeStyle=none;shape=connector;rounded=0;orthogonalLoop=1;jettySize=auto;html=1;exitX=1;exitY=0.5;exitDx=0;exitDy=0;entryX=0;entryY=0.5;entryDx=0;entryDy=0;labelBackgroundColor=default;strokeColor=default;align=center;verticalAlign=middle;fontFamily=Helvetica;fontSize=11;fontColor=default;endArrow=none;endFill=0;" edge="1" parent="1" source="jqzSuIZmgAgGuRS0_Z6t-222" target="jqzSuIZmgAgGuRS0_Z6t-377">
          <mxGeometry relative="1" as="geometry" />
        </mxCell>
        <mxCell id="jqzSuIZmgAgGuRS0_Z6t-222" value="Product-h" style="whiteSpace=wrap;html=1;align=center;fontFamily=Helvetica;fontSize=11;fontColor=default;" vertex="1" parent="1">
          <mxGeometry x="250" y="350" width="100" height="40" as="geometry" />
        </mxCell>
        <mxCell id="jqzSuIZmgAgGuRS0_Z6t-224" style="edgeStyle=none;shape=connector;rounded=0;orthogonalLoop=1;jettySize=auto;html=1;exitX=0;exitY=0.5;exitDx=0;exitDy=0;entryX=1;entryY=0.5;entryDx=0;entryDy=0;labelBackgroundColor=default;strokeColor=default;align=center;verticalAlign=middle;fontFamily=Helvetica;fontSize=11;fontColor=default;endArrow=none;endFill=0;" edge="1" parent="1" source="jqzSuIZmgAgGuRS0_Z6t-223" target="jqzSuIZmgAgGuRS0_Z6t-222">
          <mxGeometry relative="1" as="geometry" />
        </mxCell>
        <mxCell id="jqzSuIZmgAgGuRS0_Z6t-223" value="LineOfBusiness" style="ellipse;whiteSpace=wrap;html=1;align=center;fontStyle=4;fontFamily=Helvetica;fontSize=11;fontColor=default;" vertex="1" parent="1">
          <mxGeometry x="370" y="250" width="100" height="40" as="geometry" />
        </mxCell>
        <mxCell id="jqzSuIZmgAgGuRS0_Z6t-225" value="Description" style="ellipse;whiteSpace=wrap;html=1;align=center;fontFamily=Helvetica;fontSize=11;fontColor=default;" vertex="1" parent="1">
          <mxGeometry x="370" y="300" width="100" height="40" as="geometry" />
        </mxCell>
        <mxCell id="jqzSuIZmgAgGuRS0_Z6t-228" style="edgeStyle=none;shape=connector;rounded=0;orthogonalLoop=1;jettySize=auto;html=1;exitX=0.5;exitY=1;exitDx=0;exitDy=0;entryX=0.5;entryY=0;entryDx=0;entryDy=0;labelBackgroundColor=default;strokeColor=default;align=center;verticalAlign=middle;fontFamily=Helvetica;fontSize=11;fontColor=default;endArrow=none;endFill=0;" edge="1" parent="1" source="jqzSuIZmgAgGuRS0_Z6t-227" target="jqzSuIZmgAgGuRS0_Z6t-222">
          <mxGeometry relative="1" as="geometry" />
        </mxCell>
        <mxCell id="jqzSuIZmgAgGuRS0_Z6t-229" style="edgeStyle=none;shape=connector;rounded=0;orthogonalLoop=1;jettySize=auto;html=1;exitX=0.5;exitY=0;exitDx=0;exitDy=0;entryX=0;entryY=1;entryDx=0;entryDy=0;labelBackgroundColor=default;strokeColor=default;align=center;verticalAlign=middle;fontFamily=Helvetica;fontSize=11;fontColor=default;endArrow=none;endFill=0;" edge="1" parent="1" source="jqzSuIZmgAgGuRS0_Z6t-227" target="jqzSuIZmgAgGuRS0_Z6t-109">
          <mxGeometry relative="1" as="geometry" />
        </mxCell>
        <mxCell id="jqzSuIZmgAgGuRS0_Z6t-231" style="edgeStyle=none;shape=connector;rounded=0;orthogonalLoop=1;jettySize=auto;html=1;exitX=0;exitY=1;exitDx=0;exitDy=0;entryX=0.5;entryY=0;entryDx=0;entryDy=0;labelBackgroundColor=default;strokeColor=default;align=center;verticalAlign=middle;fontFamily=Helvetica;fontSize=11;fontColor=default;endArrow=none;endFill=0;" edge="1" parent="1" source="jqzSuIZmgAgGuRS0_Z6t-227" target="jqzSuIZmgAgGuRS0_Z6t-230">
          <mxGeometry relative="1" as="geometry" />
        </mxCell>
        <mxCell id="jqzSuIZmgAgGuRS0_Z6t-233" style="edgeStyle=none;shape=connector;rounded=0;orthogonalLoop=1;jettySize=auto;html=1;exitX=0;exitY=1;exitDx=0;exitDy=0;entryX=0.5;entryY=0;entryDx=0;entryDy=0;labelBackgroundColor=default;strokeColor=default;align=center;verticalAlign=middle;fontFamily=Helvetica;fontSize=11;fontColor=default;endArrow=none;endFill=0;" edge="1" parent="1" source="jqzSuIZmgAgGuRS0_Z6t-227" target="jqzSuIZmgAgGuRS0_Z6t-232">
          <mxGeometry relative="1" as="geometry" />
        </mxCell>
        <mxCell id="jqzSuIZmgAgGuRS0_Z6t-227" value="AccountProduct" style="shape=rhombus;perimeter=rhombusPerimeter;whiteSpace=wrap;html=1;align=center;fontFamily=Helvetica;fontSize=11;fontColor=default;" vertex="1" parent="1">
          <mxGeometry x="160" y="190" width="120" height="60" as="geometry" />
        </mxCell>
        <mxCell id="jqzSuIZmgAgGuRS0_Z6t-230" value="StartDate" style="ellipse;whiteSpace=wrap;html=1;align=center;fontStyle=4;fontFamily=Helvetica;fontSize=11;fontColor=default;" vertex="1" parent="1">
          <mxGeometry x="140" y="270" width="100" height="40" as="geometry" />
        </mxCell>
        <mxCell id="jqzSuIZmgAgGuRS0_Z6t-232" value="EndDate" style="ellipse;whiteSpace=wrap;html=1;align=center;fontFamily=Helvetica;fontSize=11;fontColor=default;" vertex="1" parent="1">
          <mxGeometry x="30" y="270" width="100" height="40" as="geometry" />
        </mxCell>
        <mxCell id="jqzSuIZmgAgGuRS0_Z6t-236" style="edgeStyle=none;shape=connector;rounded=0;orthogonalLoop=1;jettySize=auto;html=1;exitX=1;exitY=0.5;exitDx=0;exitDy=0;entryX=0;entryY=0.5;entryDx=0;entryDy=0;labelBackgroundColor=default;strokeColor=default;align=center;verticalAlign=middle;fontFamily=Helvetica;fontSize=11;fontColor=default;endArrow=none;endFill=0;" edge="1" parent="1" source="jqzSuIZmgAgGuRS0_Z6t-234" target="jqzSuIZmgAgGuRS0_Z6t-235">
          <mxGeometry relative="1" as="geometry" />
        </mxCell>
        <mxCell id="jqzSuIZmgAgGuRS0_Z6t-241" style="edgeStyle=none;shape=connector;rounded=0;orthogonalLoop=1;jettySize=auto;html=1;exitX=0.5;exitY=1;exitDx=0;exitDy=0;entryX=0.5;entryY=0;entryDx=0;entryDy=0;labelBackgroundColor=default;strokeColor=default;align=center;verticalAlign=middle;fontFamily=Helvetica;fontSize=11;fontColor=default;endArrow=none;endFill=0;" edge="1" parent="1" source="jqzSuIZmgAgGuRS0_Z6t-234" target="jqzSuIZmgAgGuRS0_Z6t-239">
          <mxGeometry relative="1" as="geometry" />
        </mxCell>
        <mxCell id="jqzSuIZmgAgGuRS0_Z6t-242" style="edgeStyle=none;shape=connector;rounded=0;orthogonalLoop=1;jettySize=auto;html=1;exitX=0.5;exitY=1;exitDx=0;exitDy=0;entryX=0.5;entryY=0;entryDx=0;entryDy=0;labelBackgroundColor=default;strokeColor=default;align=center;verticalAlign=middle;fontFamily=Helvetica;fontSize=11;fontColor=default;endArrow=none;endFill=0;" edge="1" parent="1" source="jqzSuIZmgAgGuRS0_Z6t-234" target="jqzSuIZmgAgGuRS0_Z6t-240">
          <mxGeometry relative="1" as="geometry" />
        </mxCell>
        <mxCell id="jqzSuIZmgAgGuRS0_Z6t-234" value="ProductSeries-h" style="shape=ext;margin=3;double=1;whiteSpace=wrap;html=1;align=center;fontFamily=Helvetica;fontSize=11;fontColor=default;" vertex="1" parent="1">
          <mxGeometry x="-20" y="350" width="100" height="40" as="geometry" />
        </mxCell>
        <mxCell id="jqzSuIZmgAgGuRS0_Z6t-237" style="edgeStyle=none;shape=connector;rounded=0;orthogonalLoop=1;jettySize=auto;html=1;exitX=1;exitY=0.5;exitDx=0;exitDy=0;entryX=0;entryY=0.5;entryDx=0;entryDy=0;labelBackgroundColor=default;strokeColor=default;align=center;verticalAlign=middle;fontFamily=Helvetica;fontSize=11;fontColor=default;endArrow=none;endFill=0;" edge="1" parent="1" source="jqzSuIZmgAgGuRS0_Z6t-235" target="jqzSuIZmgAgGuRS0_Z6t-222">
          <mxGeometry relative="1" as="geometry" />
        </mxCell>
        <mxCell id="jqzSuIZmgAgGuRS0_Z6t-235" value="isSeries" style="shape=rhombus;perimeter=rhombusPerimeter;whiteSpace=wrap;html=1;align=center;fontFamily=Helvetica;fontSize=11;fontColor=default;" vertex="1" parent="1">
          <mxGeometry x="100" y="340" width="120" height="60" as="geometry" />
        </mxCell>
        <mxCell id="jqzSuIZmgAgGuRS0_Z6t-239" value="&lt;span style=&quot;border-bottom: 1px dotted&quot;&gt;SeriesName&lt;/span&gt;" style="ellipse;whiteSpace=wrap;html=1;align=center;fontFamily=Helvetica;fontSize=11;fontColor=default;" vertex="1" parent="1">
          <mxGeometry x="-70" y="410" width="100" height="40" as="geometry" />
        </mxCell>
        <mxCell id="jqzSuIZmgAgGuRS0_Z6t-240" value="Description" style="ellipse;whiteSpace=wrap;html=1;align=center;fontFamily=Helvetica;fontSize=11;fontColor=default;" vertex="1" parent="1">
          <mxGeometry x="40" y="410" width="100" height="40" as="geometry" />
        </mxCell>
        <mxCell id="jqzSuIZmgAgGuRS0_Z6t-246" style="edgeStyle=none;shape=connector;rounded=0;orthogonalLoop=1;jettySize=auto;html=1;exitX=0.25;exitY=1;exitDx=0;exitDy=0;entryX=0.5;entryY=0;entryDx=0;entryDy=0;labelBackgroundColor=default;strokeColor=default;align=center;verticalAlign=middle;fontFamily=Helvetica;fontSize=11;fontColor=default;endArrow=none;endFill=0;" edge="1" parent="1" source="jqzSuIZmgAgGuRS0_Z6t-243" target="jqzSuIZmgAgGuRS0_Z6t-244">
          <mxGeometry relative="1" as="geometry" />
        </mxCell>
        <mxCell id="jqzSuIZmgAgGuRS0_Z6t-247" style="edgeStyle=none;shape=connector;rounded=0;orthogonalLoop=1;jettySize=auto;html=1;exitX=0.75;exitY=1;exitDx=0;exitDy=0;entryX=0.5;entryY=0;entryDx=0;entryDy=0;labelBackgroundColor=default;strokeColor=default;align=center;verticalAlign=middle;fontFamily=Helvetica;fontSize=11;fontColor=default;endArrow=none;endFill=0;" edge="1" parent="1" source="jqzSuIZmgAgGuRS0_Z6t-243" target="jqzSuIZmgAgGuRS0_Z6t-245">
          <mxGeometry relative="1" as="geometry" />
        </mxCell>
        <mxCell id="jqzSuIZmgAgGuRS0_Z6t-243" value="ProductSeriesGuidline" style="shape=ext;margin=3;double=1;whiteSpace=wrap;html=1;align=center;fontFamily=Helvetica;fontSize=11;fontColor=default;" vertex="1" parent="1">
          <mxGeometry x="-435" y="540" width="160" height="40" as="geometry" />
        </mxCell>
        <mxCell id="jqzSuIZmgAgGuRS0_Z6t-244" value="&lt;span style=&quot;border-bottom: 1px dotted&quot;&gt;PSGName&lt;/span&gt;" style="ellipse;whiteSpace=wrap;html=1;align=center;fontFamily=Helvetica;fontSize=11;fontColor=default;" vertex="1" parent="1">
          <mxGeometry x="-515" y="600" width="100" height="40" as="geometry" />
        </mxCell>
        <mxCell id="jqzSuIZmgAgGuRS0_Z6t-245" value="Description" style="ellipse;whiteSpace=wrap;html=1;align=center;fontFamily=Helvetica;fontSize=11;fontColor=default;" vertex="1" parent="1">
          <mxGeometry x="-405" y="600" width="100" height="40" as="geometry" />
        </mxCell>
        <mxCell id="jqzSuIZmgAgGuRS0_Z6t-249" style="edgeStyle=none;shape=connector;rounded=0;orthogonalLoop=1;jettySize=auto;html=1;exitX=0.5;exitY=0;exitDx=0;exitDy=0;entryX=0;entryY=0.5;entryDx=0;entryDy=0;labelBackgroundColor=default;strokeColor=default;align=center;verticalAlign=middle;fontFamily=Helvetica;fontSize=11;fontColor=default;endArrow=none;endFill=0;" edge="1" parent="1" source="jqzSuIZmgAgGuRS0_Z6t-248" target="jqzSuIZmgAgGuRS0_Z6t-234">
          <mxGeometry relative="1" as="geometry" />
        </mxCell>
        <mxCell id="jqzSuIZmgAgGuRS0_Z6t-248" value="hasGuidline" style="shape=rhombus;perimeter=rhombusPerimeter;whiteSpace=wrap;html=1;align=center;fontFamily=Helvetica;fontSize=11;fontColor=default;" vertex="1" parent="1">
          <mxGeometry x="-425" y="450" width="120" height="60" as="geometry" />
        </mxCell>
        <mxCell id="jqzSuIZmgAgGuRS0_Z6t-254" style="edgeStyle=none;shape=connector;rounded=0;orthogonalLoop=1;jettySize=auto;html=1;exitX=0.5;exitY=1;exitDx=0;exitDy=0;entryX=1;entryY=0;entryDx=0;entryDy=0;labelBackgroundColor=default;strokeColor=default;align=center;verticalAlign=middle;fontFamily=Helvetica;fontSize=11;fontColor=default;endArrow=none;endFill=0;" edge="1" parent="1" source="jqzSuIZmgAgGuRS0_Z6t-251" target="jqzSuIZmgAgGuRS0_Z6t-253">
          <mxGeometry relative="1" as="geometry" />
        </mxCell>
        <mxCell id="jqzSuIZmgAgGuRS0_Z6t-251" value="RenewalQuailifierRate" style="shape=ext;margin=3;double=1;whiteSpace=wrap;html=1;align=center;fontFamily=Helvetica;fontSize=11;fontColor=default;" vertex="1" parent="1">
          <mxGeometry x="-130" y="250" width="140" height="40" as="geometry" />
        </mxCell>
        <mxCell id="jqzSuIZmgAgGuRS0_Z6t-255" style="edgeStyle=none;shape=connector;rounded=0;orthogonalLoop=1;jettySize=auto;html=1;exitX=1;exitY=1;exitDx=0;exitDy=0;entryX=0;entryY=0.25;entryDx=0;entryDy=0;labelBackgroundColor=default;strokeColor=default;align=center;verticalAlign=middle;fontFamily=Helvetica;fontSize=11;fontColor=default;endArrow=none;endFill=0;" edge="1" parent="1" source="jqzSuIZmgAgGuRS0_Z6t-253" target="jqzSuIZmgAgGuRS0_Z6t-234">
          <mxGeometry relative="1" as="geometry" />
        </mxCell>
        <mxCell id="jqzSuIZmgAgGuRS0_Z6t-253" value="asQR" style="shape=rhombus;perimeter=rhombusPerimeter;whiteSpace=wrap;html=1;align=center;fontFamily=Helvetica;fontSize=11;fontColor=default;" vertex="1" parent="1">
          <mxGeometry x="-190" y="300" width="120" height="60" as="geometry" />
        </mxCell>
        <mxCell id="jqzSuIZmgAgGuRS0_Z6t-257" value="RateTier" style="shape=ext;margin=3;double=1;whiteSpace=wrap;html=1;align=center;fontFamily=Helvetica;fontSize=11;fontColor=default;" vertex="1" parent="1">
          <mxGeometry x="-120" y="140" width="100" height="40" as="geometry" />
        </mxCell>
        <mxCell id="jqzSuIZmgAgGuRS0_Z6t-260" style="edgeStyle=none;shape=connector;rounded=0;orthogonalLoop=1;jettySize=auto;html=1;exitX=0.5;exitY=1;exitDx=0;exitDy=0;entryX=0;entryY=0;entryDx=0;entryDy=0;labelBackgroundColor=default;strokeColor=default;align=center;verticalAlign=middle;fontFamily=Helvetica;fontSize=11;fontColor=default;endArrow=none;endFill=0;" edge="1" parent="1" source="jqzSuIZmgAgGuRS0_Z6t-258" target="jqzSuIZmgAgGuRS0_Z6t-251">
          <mxGeometry relative="1" as="geometry" />
        </mxCell>
        <mxCell id="jqzSuIZmgAgGuRS0_Z6t-261" style="edgeStyle=none;shape=connector;rounded=0;orthogonalLoop=1;jettySize=auto;html=1;exitX=0.5;exitY=0;exitDx=0;exitDy=0;entryX=0;entryY=0.5;entryDx=0;entryDy=0;labelBackgroundColor=default;strokeColor=default;align=center;verticalAlign=middle;fontFamily=Helvetica;fontSize=11;fontColor=default;endArrow=none;endFill=0;" edge="1" parent="1" source="jqzSuIZmgAgGuRS0_Z6t-258" target="jqzSuIZmgAgGuRS0_Z6t-257">
          <mxGeometry relative="1" as="geometry">
            <mxPoint x="-120" y="170" as="targetPoint" />
          </mxGeometry>
        </mxCell>
        <mxCell id="jqzSuIZmgAgGuRS0_Z6t-258" value="hasRT" style="shape=rhombus;perimeter=rhombusPerimeter;whiteSpace=wrap;html=1;align=center;fontFamily=Helvetica;fontSize=11;fontColor=default;" vertex="1" parent="1">
          <mxGeometry x="-240" y="180" width="120" height="60" as="geometry" />
        </mxCell>
        <mxCell id="jqzSuIZmgAgGuRS0_Z6t-262" style="edgeStyle=none;shape=connector;rounded=0;orthogonalLoop=1;jettySize=auto;html=1;exitX=0.5;exitY=1;exitDx=0;exitDy=0;entryX=0.433;entryY=0.05;entryDx=0;entryDy=0;entryPerimeter=0;labelBackgroundColor=default;strokeColor=default;align=center;verticalAlign=middle;fontFamily=Helvetica;fontSize=11;fontColor=default;endArrow=none;endFill=0;" edge="1" parent="1" source="jqzSuIZmgAgGuRS0_Z6t-248" target="jqzSuIZmgAgGuRS0_Z6t-243">
          <mxGeometry relative="1" as="geometry" />
        </mxCell>
        <mxCell id="jqzSuIZmgAgGuRS0_Z6t-266" style="edgeStyle=none;shape=connector;rounded=0;orthogonalLoop=1;jettySize=auto;html=1;exitX=0.5;exitY=1;exitDx=0;exitDy=0;entryX=0.5;entryY=0;entryDx=0;entryDy=0;labelBackgroundColor=default;strokeColor=default;align=center;verticalAlign=middle;fontFamily=Helvetica;fontSize=11;fontColor=default;endArrow=none;endFill=0;" edge="1" parent="1" source="jqzSuIZmgAgGuRS0_Z6t-264" target="jqzSuIZmgAgGuRS0_Z6t-265">
          <mxGeometry relative="1" as="geometry" />
        </mxCell>
        <mxCell id="jqzSuIZmgAgGuRS0_Z6t-281" style="edgeStyle=none;shape=connector;rounded=0;orthogonalLoop=1;jettySize=auto;html=1;exitX=0.5;exitY=1;exitDx=0;exitDy=0;entryX=0.5;entryY=0;entryDx=0;entryDy=0;labelBackgroundColor=default;strokeColor=default;align=center;verticalAlign=middle;fontFamily=Helvetica;fontSize=11;fontColor=default;endArrow=none;endFill=0;" edge="1" parent="1" source="jqzSuIZmgAgGuRS0_Z6t-264" target="jqzSuIZmgAgGuRS0_Z6t-280">
          <mxGeometry relative="1" as="geometry" />
        </mxCell>
        <mxCell id="jqzSuIZmgAgGuRS0_Z6t-297" style="edgeStyle=none;shape=connector;rounded=0;orthogonalLoop=1;jettySize=auto;html=1;exitX=1;exitY=0.5;exitDx=0;exitDy=0;entryX=0;entryY=0.5;entryDx=0;entryDy=0;labelBackgroundColor=default;strokeColor=default;align=center;verticalAlign=middle;fontFamily=Helvetica;fontSize=11;fontColor=default;endArrow=none;endFill=0;" edge="1" parent="1" source="jqzSuIZmgAgGuRS0_Z6t-264" target="jqzSuIZmgAgGuRS0_Z6t-296">
          <mxGeometry relative="1" as="geometry" />
        </mxCell>
        <mxCell id="jqzSuIZmgAgGuRS0_Z6t-301" style="edgeStyle=orthogonalEdgeStyle;shape=connector;rounded=0;orthogonalLoop=1;jettySize=auto;html=1;exitX=0.5;exitY=1;exitDx=0;exitDy=0;entryX=0.5;entryY=0;entryDx=0;entryDy=0;labelBackgroundColor=default;strokeColor=default;align=center;verticalAlign=middle;fontFamily=Helvetica;fontSize=11;fontColor=default;endArrow=none;endFill=0;" edge="1" parent="1" source="jqzSuIZmgAgGuRS0_Z6t-264" target="jqzSuIZmgAgGuRS0_Z6t-300">
          <mxGeometry relative="1" as="geometry" />
        </mxCell>
        <mxCell id="jqzSuIZmgAgGuRS0_Z6t-264" value="ProductPlan-h" style="shape=ext;margin=3;double=1;whiteSpace=wrap;html=1;align=center;fontFamily=Helvetica;fontSize=11;fontColor=default;" vertex="1" parent="1">
          <mxGeometry x="-180" y="540" width="100" height="40" as="geometry" />
        </mxCell>
        <mxCell id="jqzSuIZmgAgGuRS0_Z6t-265" value="&lt;span style=&quot;border-bottom: 1px dotted&quot;&gt;PlanName&lt;/span&gt;" style="ellipse;whiteSpace=wrap;html=1;align=center;fontFamily=Helvetica;fontSize=11;fontColor=default;" vertex="1" parent="1">
          <mxGeometry x="-250" y="600" width="100" height="40" as="geometry" />
        </mxCell>
        <mxCell id="jqzSuIZmgAgGuRS0_Z6t-272" style="edgeStyle=none;shape=connector;rounded=0;orthogonalLoop=1;jettySize=auto;html=1;exitX=0.5;exitY=0;exitDx=0;exitDy=0;entryX=0;entryY=0.75;entryDx=0;entryDy=0;labelBackgroundColor=default;strokeColor=default;align=center;verticalAlign=middle;fontFamily=Helvetica;fontSize=11;fontColor=default;endArrow=none;endFill=0;" edge="1" parent="1" source="jqzSuIZmgAgGuRS0_Z6t-269" target="jqzSuIZmgAgGuRS0_Z6t-234">
          <mxGeometry relative="1" as="geometry" />
        </mxCell>
        <mxCell id="jqzSuIZmgAgGuRS0_Z6t-279" style="edgeStyle=none;shape=connector;rounded=0;orthogonalLoop=1;jettySize=auto;html=1;exitX=0.5;exitY=1;exitDx=0;exitDy=0;labelBackgroundColor=default;strokeColor=default;align=center;verticalAlign=middle;fontFamily=Helvetica;fontSize=11;fontColor=default;endArrow=none;endFill=0;" edge="1" parent="1" source="jqzSuIZmgAgGuRS0_Z6t-269" target="jqzSuIZmgAgGuRS0_Z6t-264">
          <mxGeometry relative="1" as="geometry" />
        </mxCell>
        <mxCell id="jqzSuIZmgAgGuRS0_Z6t-269" value="belongToSeries" style="shape=rhombus;perimeter=rhombusPerimeter;whiteSpace=wrap;html=1;align=center;fontFamily=Helvetica;fontSize=11;fontColor=default;" vertex="1" parent="1">
          <mxGeometry x="-210" y="450" width="120" height="60" as="geometry" />
        </mxCell>
        <mxCell id="jqzSuIZmgAgGuRS0_Z6t-280" value="PlanCode" style="ellipse;whiteSpace=wrap;html=1;align=center;fontFamily=Helvetica;fontSize=11;fontColor=default;" vertex="1" parent="1">
          <mxGeometry x="-120" y="600" width="100" height="40" as="geometry" />
        </mxCell>
        <mxCell id="jqzSuIZmgAgGuRS0_Z6t-284" style="edgeStyle=none;shape=connector;rounded=0;orthogonalLoop=1;jettySize=auto;html=1;exitX=0.5;exitY=1;exitDx=0;exitDy=0;entryX=0.5;entryY=0;entryDx=0;entryDy=0;labelBackgroundColor=default;strokeColor=default;align=center;verticalAlign=middle;fontFamily=Helvetica;fontSize=11;fontColor=default;endArrow=none;endFill=0;" edge="1" parent="1" source="jqzSuIZmgAgGuRS0_Z6t-282" target="jqzSuIZmgAgGuRS0_Z6t-283">
          <mxGeometry relative="1" as="geometry" />
        </mxCell>
        <mxCell id="jqzSuIZmgAgGuRS0_Z6t-286" style="edgeStyle=none;shape=connector;rounded=0;orthogonalLoop=1;jettySize=auto;html=1;exitX=0.5;exitY=1;exitDx=0;exitDy=0;entryX=0.5;entryY=0;entryDx=0;entryDy=0;labelBackgroundColor=default;strokeColor=default;align=center;verticalAlign=middle;fontFamily=Helvetica;fontSize=11;fontColor=default;endArrow=none;endFill=0;" edge="1" parent="1" source="jqzSuIZmgAgGuRS0_Z6t-282" target="jqzSuIZmgAgGuRS0_Z6t-285">
          <mxGeometry relative="1" as="geometry" />
        </mxCell>
        <mxCell id="jqzSuIZmgAgGuRS0_Z6t-282" value="ProductRider-h" style="shape=ext;margin=3;double=1;whiteSpace=wrap;html=1;align=center;fontFamily=Helvetica;fontSize=11;fontColor=default;" vertex="1" parent="1">
          <mxGeometry x="60" y="540" width="100" height="40" as="geometry" />
        </mxCell>
        <mxCell id="jqzSuIZmgAgGuRS0_Z6t-283" value="&lt;span style=&quot;border-bottom: 1px dotted&quot;&gt;RiderName&lt;/span&gt;" style="ellipse;whiteSpace=wrap;html=1;align=center;fontFamily=Helvetica;fontSize=11;fontColor=default;" vertex="1" parent="1">
          <mxGeometry x="10" y="600" width="100" height="40" as="geometry" />
        </mxCell>
        <mxCell id="jqzSuIZmgAgGuRS0_Z6t-285" value="Description" style="ellipse;whiteSpace=wrap;html=1;align=center;fontFamily=Helvetica;fontSize=11;fontColor=default;" vertex="1" parent="1">
          <mxGeometry x="120" y="600" width="100" height="40" as="geometry" />
        </mxCell>
        <mxCell id="jqzSuIZmgAgGuRS0_Z6t-291" style="edgeStyle=none;shape=connector;rounded=0;orthogonalLoop=1;jettySize=auto;html=1;exitX=0.5;exitY=1;exitDx=0;exitDy=0;entryX=0.5;entryY=0;entryDx=0;entryDy=0;labelBackgroundColor=default;strokeColor=default;align=center;verticalAlign=middle;fontFamily=Helvetica;fontSize=11;fontColor=default;endArrow=none;endFill=0;" edge="1" parent="1" source="jqzSuIZmgAgGuRS0_Z6t-287" target="jqzSuIZmgAgGuRS0_Z6t-288">
          <mxGeometry relative="1" as="geometry" />
        </mxCell>
        <mxCell id="jqzSuIZmgAgGuRS0_Z6t-292" style="edgeStyle=none;shape=connector;rounded=0;orthogonalLoop=1;jettySize=auto;html=1;exitX=0.5;exitY=1;exitDx=0;exitDy=0;entryX=0.5;entryY=0;entryDx=0;entryDy=0;labelBackgroundColor=default;strokeColor=default;align=center;verticalAlign=middle;fontFamily=Helvetica;fontSize=11;fontColor=default;endArrow=none;endFill=0;" edge="1" parent="1" source="jqzSuIZmgAgGuRS0_Z6t-287" target="jqzSuIZmgAgGuRS0_Z6t-289">
          <mxGeometry relative="1" as="geometry" />
        </mxCell>
        <mxCell id="jqzSuIZmgAgGuRS0_Z6t-287" value="ProductPlanGuildlines" style="shape=ext;margin=3;double=1;whiteSpace=wrap;html=1;align=center;fontFamily=Helvetica;fontSize=11;fontColor=default;" vertex="1" parent="1">
          <mxGeometry x="325" y="540" width="125" height="40" as="geometry" />
        </mxCell>
        <mxCell id="jqzSuIZmgAgGuRS0_Z6t-288" value="&lt;span style=&quot;border-bottom: 1px dotted&quot;&gt;PPGName&lt;/span&gt;" style="ellipse;whiteSpace=wrap;html=1;align=center;fontFamily=Helvetica;fontSize=11;fontColor=default;" vertex="1" parent="1">
          <mxGeometry x="250" y="600" width="100" height="40" as="geometry" />
        </mxCell>
        <mxCell id="jqzSuIZmgAgGuRS0_Z6t-289" value="Description" style="ellipse;whiteSpace=wrap;html=1;align=center;fontFamily=Helvetica;fontSize=11;fontColor=default;" vertex="1" parent="1">
          <mxGeometry x="380" y="600" width="100" height="40" as="geometry" />
        </mxCell>
        <mxCell id="jqzSuIZmgAgGuRS0_Z6t-294" style="edgeStyle=none;shape=connector;rounded=0;orthogonalLoop=1;jettySize=auto;html=1;exitX=1;exitY=0.5;exitDx=0;exitDy=0;entryX=0;entryY=0.5;entryDx=0;entryDy=0;labelBackgroundColor=default;strokeColor=default;align=center;verticalAlign=middle;fontFamily=Helvetica;fontSize=11;fontColor=default;endArrow=none;endFill=0;" edge="1" parent="1" source="jqzSuIZmgAgGuRS0_Z6t-293" target="jqzSuIZmgAgGuRS0_Z6t-287">
          <mxGeometry relative="1" as="geometry" />
        </mxCell>
        <mxCell id="jqzSuIZmgAgGuRS0_Z6t-295" style="edgeStyle=none;shape=connector;rounded=0;orthogonalLoop=1;jettySize=auto;html=1;exitX=0;exitY=0.5;exitDx=0;exitDy=0;entryX=1;entryY=0.5;entryDx=0;entryDy=0;labelBackgroundColor=default;strokeColor=default;align=center;verticalAlign=middle;fontFamily=Helvetica;fontSize=11;fontColor=default;endArrow=none;endFill=0;" edge="1" parent="1" source="jqzSuIZmgAgGuRS0_Z6t-293" target="jqzSuIZmgAgGuRS0_Z6t-282">
          <mxGeometry relative="1" as="geometry" />
        </mxCell>
        <mxCell id="jqzSuIZmgAgGuRS0_Z6t-293" value="hasPG" style="shape=rhombus;perimeter=rhombusPerimeter;whiteSpace=wrap;html=1;align=center;fontFamily=Helvetica;fontSize=11;fontColor=default;" vertex="1" parent="1">
          <mxGeometry x="180" y="530" width="120" height="60" as="geometry" />
        </mxCell>
        <mxCell id="jqzSuIZmgAgGuRS0_Z6t-298" style="edgeStyle=none;shape=connector;rounded=0;orthogonalLoop=1;jettySize=auto;html=1;exitX=1;exitY=0.5;exitDx=0;exitDy=0;entryX=0;entryY=0.5;entryDx=0;entryDy=0;labelBackgroundColor=default;strokeColor=default;align=center;verticalAlign=middle;fontFamily=Helvetica;fontSize=11;fontColor=default;endArrow=none;endFill=0;" edge="1" parent="1" source="jqzSuIZmgAgGuRS0_Z6t-296" target="jqzSuIZmgAgGuRS0_Z6t-282">
          <mxGeometry relative="1" as="geometry" />
        </mxCell>
        <mxCell id="jqzSuIZmgAgGuRS0_Z6t-296" value="hasRider" style="shape=rhombus;perimeter=rhombusPerimeter;whiteSpace=wrap;html=1;align=center;fontFamily=Helvetica;fontSize=11;fontColor=default;" vertex="1" parent="1">
          <mxGeometry x="-70" y="530" width="120" height="60" as="geometry" />
        </mxCell>
        <mxCell id="jqzSuIZmgAgGuRS0_Z6t-302" style="edgeStyle=orthogonalEdgeStyle;shape=connector;rounded=0;orthogonalLoop=1;jettySize=auto;html=1;exitX=1;exitY=0.5;exitDx=0;exitDy=0;entryX=0;entryY=0;entryDx=0;entryDy=0;labelBackgroundColor=default;strokeColor=default;align=center;verticalAlign=middle;fontFamily=Helvetica;fontSize=11;fontColor=default;endArrow=none;endFill=0;" edge="1" parent="1" source="jqzSuIZmgAgGuRS0_Z6t-300" target="jqzSuIZmgAgGuRS0_Z6t-83">
          <mxGeometry relative="1" as="geometry" />
        </mxCell>
        <mxCell id="jqzSuIZmgAgGuRS0_Z6t-300" value="withContract" style="shape=rhombus;perimeter=rhombusPerimeter;whiteSpace=wrap;html=1;align=center;fontFamily=Helvetica;fontSize=11;fontColor=default;" vertex="1" parent="1">
          <mxGeometry x="-180" y="980" width="120" height="60" as="geometry" />
        </mxCell>
        <mxCell id="jqzSuIZmgAgGuRS0_Z6t-303" value="Contract_PayAdvance" style="shape=ext;margin=3;double=1;whiteSpace=wrap;html=1;align=center;fontFamily=Helvetica;fontSize=11;fontColor=default;" vertex="1" parent="1">
          <mxGeometry x="1300" y="940" width="130" height="40" as="geometry" />
        </mxCell>
        <mxCell id="jqzSuIZmgAgGuRS0_Z6t-306" style="edgeStyle=none;shape=connector;rounded=0;orthogonalLoop=1;jettySize=auto;html=1;exitX=1;exitY=0.5;exitDx=0;exitDy=0;entryX=0;entryY=0.5;entryDx=0;entryDy=0;labelBackgroundColor=default;strokeColor=default;align=center;verticalAlign=middle;fontFamily=Helvetica;fontSize=11;fontColor=default;endArrow=none;endFill=0;" edge="1" parent="1" source="jqzSuIZmgAgGuRS0_Z6t-304" target="jqzSuIZmgAgGuRS0_Z6t-303">
          <mxGeometry relative="1" as="geometry" />
        </mxCell>
        <mxCell id="jqzSuIZmgAgGuRS0_Z6t-304" value="have_PA" style="shape=rhombus;perimeter=rhombusPerimeter;whiteSpace=wrap;html=1;align=center;fontFamily=Helvetica;fontSize=11;fontColor=default;" vertex="1" parent="1">
          <mxGeometry x="1150" y="930" width="120" height="60" as="geometry" />
        </mxCell>
        <mxCell id="jqzSuIZmgAgGuRS0_Z6t-310" style="edgeStyle=none;shape=connector;rounded=0;orthogonalLoop=1;jettySize=auto;html=1;exitX=1;exitY=0.5;exitDx=0;exitDy=0;entryX=0;entryY=0.5;entryDx=0;entryDy=0;labelBackgroundColor=default;strokeColor=default;align=center;verticalAlign=middle;fontFamily=Helvetica;fontSize=11;fontColor=default;endArrow=none;endFill=0;" edge="1" parent="1" source="jqzSuIZmgAgGuRS0_Z6t-307" target="jqzSuIZmgAgGuRS0_Z6t-309">
          <mxGeometry relative="1" as="geometry" />
        </mxCell>
        <mxCell id="jqzSuIZmgAgGuRS0_Z6t-307" value="haveUnderwriting" style="shape=rhombus;perimeter=rhombusPerimeter;whiteSpace=wrap;html=1;align=center;fontFamily=Helvetica;fontSize=11;fontColor=default;" vertex="1" parent="1">
          <mxGeometry x="1150" y="990" width="120" height="60" as="geometry" />
        </mxCell>
        <mxCell id="jqzSuIZmgAgGuRS0_Z6t-312" style="edgeStyle=none;shape=connector;rounded=0;orthogonalLoop=1;jettySize=auto;html=1;exitX=1;exitY=0.5;exitDx=0;exitDy=0;entryX=0;entryY=0.5;entryDx=0;entryDy=0;labelBackgroundColor=default;strokeColor=default;align=center;verticalAlign=middle;fontFamily=Helvetica;fontSize=11;fontColor=default;endArrow=none;endFill=0;" edge="1" parent="1" source="jqzSuIZmgAgGuRS0_Z6t-309" target="jqzSuIZmgAgGuRS0_Z6t-311">
          <mxGeometry relative="1" as="geometry" />
        </mxCell>
        <mxCell id="jqzSuIZmgAgGuRS0_Z6t-314" style="edgeStyle=none;shape=connector;rounded=0;orthogonalLoop=1;jettySize=auto;html=1;exitX=0.5;exitY=1;exitDx=0;exitDy=0;entryX=0.5;entryY=0;entryDx=0;entryDy=0;labelBackgroundColor=default;strokeColor=default;align=center;verticalAlign=middle;fontFamily=Helvetica;fontSize=11;fontColor=default;endArrow=none;endFill=0;" edge="1" parent="1" source="jqzSuIZmgAgGuRS0_Z6t-309" target="jqzSuIZmgAgGuRS0_Z6t-313">
          <mxGeometry relative="1" as="geometry" />
        </mxCell>
        <mxCell id="jqzSuIZmgAgGuRS0_Z6t-309" value="ContractUnderwriting" style="shape=ext;margin=3;double=1;whiteSpace=wrap;html=1;align=center;fontFamily=Helvetica;fontSize=11;fontColor=default;" vertex="1" parent="1">
          <mxGeometry x="1300" y="1000" width="130" height="40" as="geometry" />
        </mxCell>
        <mxCell id="jqzSuIZmgAgGuRS0_Z6t-311" value="&lt;span style=&quot;border-bottom: 1px dotted&quot;&gt;Underwriter&lt;/span&gt;" style="ellipse;whiteSpace=wrap;html=1;align=center;fontFamily=Helvetica;fontSize=11;fontColor=default;" vertex="1" parent="1">
          <mxGeometry x="1460" y="1000" width="100" height="40" as="geometry" />
        </mxCell>
        <mxCell id="jqzSuIZmgAgGuRS0_Z6t-316" style="edgeStyle=none;shape=connector;rounded=0;orthogonalLoop=1;jettySize=auto;html=1;exitX=1;exitY=0.5;exitDx=0;exitDy=0;entryX=0;entryY=0.5;entryDx=0;entryDy=0;labelBackgroundColor=default;strokeColor=default;align=center;verticalAlign=middle;fontFamily=Helvetica;fontSize=11;fontColor=default;endArrow=none;endFill=0;" edge="1" parent="1" source="jqzSuIZmgAgGuRS0_Z6t-313" target="jqzSuIZmgAgGuRS0_Z6t-315">
          <mxGeometry relative="1" as="geometry" />
        </mxCell>
        <mxCell id="jqzSuIZmgAgGuRS0_Z6t-313" value="haveWI" style="shape=rhombus;perimeter=rhombusPerimeter;whiteSpace=wrap;html=1;align=center;fontFamily=Helvetica;fontSize=11;fontColor=default;" vertex="1" parent="1">
          <mxGeometry x="1305" y="1060" width="120" height="60" as="geometry" />
        </mxCell>
        <mxCell id="jqzSuIZmgAgGuRS0_Z6t-315" value="&lt;span style=&quot;border-bottom: 1px dotted&quot;&gt;DocumentID&lt;/span&gt;" style="ellipse;whiteSpace=wrap;html=1;align=center;fontFamily=Helvetica;fontSize=11;fontColor=default;" vertex="1" parent="1">
          <mxGeometry x="1460" y="1070" width="100" height="40" as="geometry" />
        </mxCell>
        <mxCell id="jqzSuIZmgAgGuRS0_Z6t-320" style="edgeStyle=none;shape=connector;rounded=0;orthogonalLoop=1;jettySize=auto;html=1;exitX=0.5;exitY=1;exitDx=0;exitDy=0;entryX=0.5;entryY=0;entryDx=0;entryDy=0;labelBackgroundColor=default;strokeColor=default;align=center;verticalAlign=middle;fontFamily=Helvetica;fontSize=11;fontColor=default;endArrow=none;endFill=0;" edge="1" parent="1" source="jqzSuIZmgAgGuRS0_Z6t-317" target="jqzSuIZmgAgGuRS0_Z6t-319">
          <mxGeometry relative="1" as="geometry" />
        </mxCell>
        <mxCell id="jqzSuIZmgAgGuRS0_Z6t-317" value="ContractingPartyRole" style="whiteSpace=wrap;html=1;align=center;fontFamily=Helvetica;fontSize=11;fontColor=default;" vertex="1" parent="1">
          <mxGeometry x="720" y="1110" width="120" height="40" as="geometry" />
        </mxCell>
        <mxCell id="jqzSuIZmgAgGuRS0_Z6t-326" style="edgeStyle=orthogonalEdgeStyle;shape=connector;rounded=0;orthogonalLoop=1;jettySize=auto;html=1;exitX=0;exitY=0.5;exitDx=0;exitDy=0;entryX=0;entryY=1;entryDx=0;entryDy=0;labelBackgroundColor=default;strokeColor=default;align=center;verticalAlign=middle;fontFamily=Helvetica;fontSize=11;fontColor=default;endArrow=none;endFill=0;" edge="1" parent="1" source="jqzSuIZmgAgGuRS0_Z6t-319" target="SDGVXNkJ4wVJUg49SY7T-4">
          <mxGeometry relative="1" as="geometry">
            <Array as="points">
              <mxPoint x="690" y="1410" />
              <mxPoint x="-1320" y="1410" />
              <mxPoint x="-1320" y="150" />
            </Array>
          </mxGeometry>
        </mxCell>
        <mxCell id="jqzSuIZmgAgGuRS0_Z6t-319" value="ContractingPartyRole" style="shape=rhombus;perimeter=rhombusPerimeter;whiteSpace=wrap;html=1;align=center;fontFamily=Helvetica;fontSize=11;fontColor=default;" vertex="1" parent="1">
          <mxGeometry x="690" y="1160" width="120" height="60" as="geometry" />
        </mxCell>
        <mxCell id="jqzSuIZmgAgGuRS0_Z6t-321" style="edgeStyle=orthogonalEdgeStyle;shape=connector;rounded=0;orthogonalLoop=1;jettySize=auto;html=1;exitX=1;exitY=0.5;exitDx=0;exitDy=0;entryX=0.833;entryY=1.067;entryDx=0;entryDy=0;entryPerimeter=0;labelBackgroundColor=default;strokeColor=default;align=center;verticalAlign=middle;fontFamily=Helvetica;fontSize=11;fontColor=default;endArrow=none;endFill=0;" edge="1" parent="1" source="jqzSuIZmgAgGuRS0_Z6t-319" target="jqzSuIZmgAgGuRS0_Z6t-83">
          <mxGeometry relative="1" as="geometry" />
        </mxCell>
        <mxCell id="jqzSuIZmgAgGuRS0_Z6t-323" style="edgeStyle=none;shape=connector;rounded=0;orthogonalLoop=1;jettySize=auto;html=1;exitX=0.5;exitY=1;exitDx=0;exitDy=0;entryX=0.25;entryY=0;entryDx=0;entryDy=0;labelBackgroundColor=default;strokeColor=default;align=center;verticalAlign=middle;fontFamily=Helvetica;fontSize=11;fontColor=default;endArrow=none;endFill=0;" edge="1" parent="1" source="jqzSuIZmgAgGuRS0_Z6t-322" target="jqzSuIZmgAgGuRS0_Z6t-317">
          <mxGeometry relative="1" as="geometry" />
        </mxCell>
        <mxCell id="jqzSuIZmgAgGuRS0_Z6t-322" value="Role" style="ellipse;whiteSpace=wrap;html=1;align=center;fontStyle=4;fontFamily=Helvetica;fontSize=11;fontColor=default;" vertex="1" parent="1">
          <mxGeometry x="710" y="1050" width="100" height="40" as="geometry" />
        </mxCell>
        <mxCell id="jqzSuIZmgAgGuRS0_Z6t-325" style="edgeStyle=none;shape=connector;rounded=0;orthogonalLoop=1;jettySize=auto;html=1;exitX=0.5;exitY=1;exitDx=0;exitDy=0;entryX=0.75;entryY=0;entryDx=0;entryDy=0;labelBackgroundColor=default;strokeColor=default;align=center;verticalAlign=middle;fontFamily=Helvetica;fontSize=11;fontColor=default;endArrow=none;endFill=0;" edge="1" parent="1" source="jqzSuIZmgAgGuRS0_Z6t-324" target="jqzSuIZmgAgGuRS0_Z6t-317">
          <mxGeometry relative="1" as="geometry" />
        </mxCell>
        <mxCell id="jqzSuIZmgAgGuRS0_Z6t-324" value="Description" style="ellipse;whiteSpace=wrap;html=1;align=center;fontFamily=Helvetica;fontSize=11;fontColor=default;" vertex="1" parent="1">
          <mxGeometry x="827.5" y="1050" width="100" height="40" as="geometry" />
        </mxCell>
        <mxCell id="jqzSuIZmgAgGuRS0_Z6t-355" style="shape=connector;rounded=0;orthogonalLoop=1;jettySize=auto;html=1;exitX=0;exitY=0.5;exitDx=0;exitDy=0;labelBackgroundColor=default;strokeColor=default;align=center;verticalAlign=middle;fontFamily=Helvetica;fontSize=11;fontColor=default;endArrow=none;endFill=0;entryX=1;entryY=0.5;entryDx=0;entryDy=0;" edge="1" parent="1" source="jqzSuIZmgAgGuRS0_Z6t-342" target="jqzSuIZmgAgGuRS0_Z6t-352">
          <mxGeometry relative="1" as="geometry">
            <mxPoint x="1410" y="-200" as="targetPoint" />
          </mxGeometry>
        </mxCell>
        <mxCell id="jqzSuIZmgAgGuRS0_Z6t-375" style="edgeStyle=none;shape=connector;rounded=0;orthogonalLoop=1;jettySize=auto;html=1;exitX=0.5;exitY=1;exitDx=0;exitDy=0;entryX=0.5;entryY=0;entryDx=0;entryDy=0;labelBackgroundColor=default;strokeColor=default;align=center;verticalAlign=middle;fontFamily=Helvetica;fontSize=11;fontColor=default;endArrow=none;endFill=0;" edge="1" parent="1" source="jqzSuIZmgAgGuRS0_Z6t-342" target="jqzSuIZmgAgGuRS0_Z6t-374">
          <mxGeometry relative="1" as="geometry" />
        </mxCell>
        <mxCell id="jqzSuIZmgAgGuRS0_Z6t-400" style="edgeStyle=none;shape=connector;rounded=0;orthogonalLoop=1;jettySize=auto;html=1;exitX=0;exitY=1;exitDx=0;exitDy=0;entryX=1;entryY=0.5;entryDx=0;entryDy=0;labelBackgroundColor=default;strokeColor=default;align=center;verticalAlign=middle;fontFamily=Helvetica;fontSize=11;fontColor=default;endArrow=none;endFill=0;" edge="1" parent="1" source="jqzSuIZmgAgGuRS0_Z6t-342" target="jqzSuIZmgAgGuRS0_Z6t-399">
          <mxGeometry relative="1" as="geometry" />
        </mxCell>
        <mxCell id="jqzSuIZmgAgGuRS0_Z6t-342" value="ManagerContract" style="whiteSpace=wrap;html=1;align=center;fontFamily=Helvetica;fontSize=11;fontColor=default;" vertex="1" parent="1">
          <mxGeometry x="1640" y="-70" width="100" height="40" as="geometry" />
        </mxCell>
        <mxCell id="jqzSuIZmgAgGuRS0_Z6t-344" style="edgeStyle=none;shape=connector;rounded=0;orthogonalLoop=1;jettySize=auto;html=1;exitX=0.5;exitY=1;exitDx=0;exitDy=0;entryX=0.25;entryY=0;entryDx=0;entryDy=0;labelBackgroundColor=default;strokeColor=default;align=center;verticalAlign=middle;fontFamily=Helvetica;fontSize=11;fontColor=default;endArrow=none;endFill=0;" edge="1" parent="1" source="jqzSuIZmgAgGuRS0_Z6t-343" target="jqzSuIZmgAgGuRS0_Z6t-342">
          <mxGeometry relative="1" as="geometry" />
        </mxCell>
        <mxCell id="jqzSuIZmgAgGuRS0_Z6t-343" value="SitCode" style="ellipse;whiteSpace=wrap;html=1;align=center;fontStyle=4;fontFamily=Helvetica;fontSize=11;fontColor=default;" vertex="1" parent="1">
          <mxGeometry x="1580" y="-135" width="100" height="40" as="geometry" />
        </mxCell>
        <mxCell id="jqzSuIZmgAgGuRS0_Z6t-346" style="edgeStyle=none;shape=connector;rounded=0;orthogonalLoop=1;jettySize=auto;html=1;exitX=0.5;exitY=1;exitDx=0;exitDy=0;entryX=0.75;entryY=0;entryDx=0;entryDy=0;labelBackgroundColor=default;strokeColor=default;align=center;verticalAlign=middle;fontFamily=Helvetica;fontSize=11;fontColor=default;endArrow=none;endFill=0;" edge="1" parent="1" source="jqzSuIZmgAgGuRS0_Z6t-345" target="jqzSuIZmgAgGuRS0_Z6t-342">
          <mxGeometry relative="1" as="geometry" />
        </mxCell>
        <mxCell id="jqzSuIZmgAgGuRS0_Z6t-345" value="IssueDate" style="ellipse;whiteSpace=wrap;html=1;align=center;fontStyle=4;fontFamily=Helvetica;fontSize=11;fontColor=default;" vertex="1" parent="1">
          <mxGeometry x="1690" y="-135" width="100" height="40" as="geometry" />
        </mxCell>
        <mxCell id="jqzSuIZmgAgGuRS0_Z6t-347" value="AssociateRole" style="whiteSpace=wrap;html=1;align=center;fontFamily=Helvetica;fontSize=11;fontColor=default;" vertex="1" parent="1">
          <mxGeometry x="1640" y="-260" width="100" height="40" as="geometry" />
        </mxCell>
        <mxCell id="jqzSuIZmgAgGuRS0_Z6t-349" style="edgeStyle=none;shape=connector;rounded=0;orthogonalLoop=1;jettySize=auto;html=1;exitX=0.5;exitY=1;exitDx=0;exitDy=0;entryX=0.5;entryY=0;entryDx=0;entryDy=0;labelBackgroundColor=default;strokeColor=default;align=center;verticalAlign=middle;fontFamily=Helvetica;fontSize=11;fontColor=default;endArrow=none;endFill=0;" edge="1" parent="1" source="jqzSuIZmgAgGuRS0_Z6t-348" target="jqzSuIZmgAgGuRS0_Z6t-347">
          <mxGeometry relative="1" as="geometry" />
        </mxCell>
        <mxCell id="jqzSuIZmgAgGuRS0_Z6t-348" value="Role" style="ellipse;whiteSpace=wrap;html=1;align=center;fontStyle=4;fontFamily=Helvetica;fontSize=11;fontColor=default;" vertex="1" parent="1">
          <mxGeometry x="1580" y="-325" width="100" height="40" as="geometry" />
        </mxCell>
        <mxCell id="jqzSuIZmgAgGuRS0_Z6t-351" style="edgeStyle=none;shape=connector;rounded=0;orthogonalLoop=1;jettySize=auto;html=1;exitX=0.5;exitY=1;exitDx=0;exitDy=0;entryX=0.5;entryY=0;entryDx=0;entryDy=0;labelBackgroundColor=default;strokeColor=default;align=center;verticalAlign=middle;fontFamily=Helvetica;fontSize=11;fontColor=default;endArrow=none;endFill=0;" edge="1" parent="1" source="jqzSuIZmgAgGuRS0_Z6t-350" target="jqzSuIZmgAgGuRS0_Z6t-347">
          <mxGeometry relative="1" as="geometry" />
        </mxCell>
        <mxCell id="jqzSuIZmgAgGuRS0_Z6t-350" value="Description" style="ellipse;whiteSpace=wrap;html=1;align=center;fontFamily=Helvetica;fontSize=11;fontColor=default;" vertex="1" parent="1">
          <mxGeometry x="1700" y="-325" width="100" height="40" as="geometry" />
        </mxCell>
        <mxCell id="jqzSuIZmgAgGuRS0_Z6t-353" style="shape=connector;rounded=0;orthogonalLoop=1;jettySize=auto;html=1;exitX=1;exitY=0.5;exitDx=0;exitDy=0;entryX=0;entryY=0.5;entryDx=0;entryDy=0;labelBackgroundColor=default;strokeColor=default;align=center;verticalAlign=middle;fontFamily=Helvetica;fontSize=11;fontColor=default;endArrow=none;endFill=0;" edge="1" parent="1" source="jqzSuIZmgAgGuRS0_Z6t-352" target="jqzSuIZmgAgGuRS0_Z6t-347">
          <mxGeometry relative="1" as="geometry" />
        </mxCell>
        <mxCell id="jqzSuIZmgAgGuRS0_Z6t-357" style="edgeStyle=none;shape=connector;rounded=0;orthogonalLoop=1;jettySize=auto;html=1;exitX=0;exitY=0.5;exitDx=0;exitDy=0;entryX=1;entryY=0.5;entryDx=0;entryDy=0;labelBackgroundColor=default;strokeColor=default;align=center;verticalAlign=middle;fontFamily=Helvetica;fontSize=11;fontColor=default;endArrow=none;endFill=0;" edge="1" parent="1" source="jqzSuIZmgAgGuRS0_Z6t-352" target="jqzSuIZmgAgGuRS0_Z6t-109">
          <mxGeometry relative="1" as="geometry" />
        </mxCell>
        <mxCell id="jqzSuIZmgAgGuRS0_Z6t-352" value="Account_Associate" style="shape=rhombus;perimeter=rhombusPerimeter;whiteSpace=wrap;html=1;align=center;fontFamily=Helvetica;fontSize=11;fontColor=default;" vertex="1" parent="1">
          <mxGeometry x="960" y="-425" width="120" height="60" as="geometry" />
        </mxCell>
        <mxCell id="jqzSuIZmgAgGuRS0_Z6t-359" style="edgeStyle=none;shape=connector;rounded=0;orthogonalLoop=1;jettySize=auto;html=1;exitX=0.5;exitY=1;exitDx=0;exitDy=0;entryX=0.5;entryY=0;entryDx=0;entryDy=0;labelBackgroundColor=default;strokeColor=default;align=center;verticalAlign=middle;fontFamily=Helvetica;fontSize=11;fontColor=default;endArrow=none;endFill=0;" edge="1" parent="1" source="jqzSuIZmgAgGuRS0_Z6t-358" target="jqzSuIZmgAgGuRS0_Z6t-352">
          <mxGeometry relative="1" as="geometry" />
        </mxCell>
        <mxCell id="jqzSuIZmgAgGuRS0_Z6t-358" value="StartDate" style="ellipse;whiteSpace=wrap;html=1;align=center;fontStyle=4;fontFamily=Helvetica;fontSize=11;fontColor=default;" vertex="1" parent="1">
          <mxGeometry x="970" y="-490" width="100" height="40" as="geometry" />
        </mxCell>
        <mxCell id="jqzSuIZmgAgGuRS0_Z6t-365" style="edgeStyle=none;shape=connector;rounded=0;orthogonalLoop=1;jettySize=auto;html=1;exitX=1;exitY=0.5;exitDx=0;exitDy=0;entryX=0;entryY=0.5;entryDx=0;entryDy=0;labelBackgroundColor=default;strokeColor=default;align=center;verticalAlign=middle;fontFamily=Helvetica;fontSize=11;fontColor=default;endArrow=none;endFill=0;" edge="1" parent="1" source="jqzSuIZmgAgGuRS0_Z6t-360" target="jqzSuIZmgAgGuRS0_Z6t-364">
          <mxGeometry relative="1" as="geometry" />
        </mxCell>
        <mxCell id="jqzSuIZmgAgGuRS0_Z6t-360" value="WritingNumber" style="shape=ext;margin=3;double=1;whiteSpace=wrap;html=1;align=center;fontFamily=Helvetica;fontSize=11;fontColor=default;" vertex="1" parent="1">
          <mxGeometry x="1640" y="97.5" width="100" height="40" as="geometry" />
        </mxCell>
        <mxCell id="jqzSuIZmgAgGuRS0_Z6t-372" style="edgeStyle=none;shape=connector;rounded=0;orthogonalLoop=1;jettySize=auto;html=1;exitX=0;exitY=0.5;exitDx=0;exitDy=0;entryX=1;entryY=0.5;entryDx=0;entryDy=0;labelBackgroundColor=default;strokeColor=default;align=center;verticalAlign=middle;fontFamily=Helvetica;fontSize=11;fontColor=default;endArrow=none;endFill=0;" edge="1" parent="1" source="jqzSuIZmgAgGuRS0_Z6t-361" target="jqzSuIZmgAgGuRS0_Z6t-366">
          <mxGeometry relative="1" as="geometry">
            <mxPoint x="1380" y="-30" as="sourcePoint" />
          </mxGeometry>
        </mxCell>
        <mxCell id="jqzSuIZmgAgGuRS0_Z6t-373" style="edgeStyle=none;shape=connector;rounded=0;orthogonalLoop=1;jettySize=auto;html=1;exitX=1;exitY=0.5;exitDx=0;exitDy=0;entryX=0;entryY=0;entryDx=0;entryDy=0;labelBackgroundColor=default;strokeColor=default;align=center;verticalAlign=middle;fontFamily=Helvetica;fontSize=11;fontColor=default;endArrow=none;endFill=0;" edge="1" parent="1" source="jqzSuIZmgAgGuRS0_Z6t-361" target="jqzSuIZmgAgGuRS0_Z6t-360">
          <mxGeometry relative="1" as="geometry" />
        </mxCell>
        <mxCell id="jqzSuIZmgAgGuRS0_Z6t-361" value="hasWN" style="shape=rhombus;perimeter=rhombusPerimeter;whiteSpace=wrap;html=1;align=center;fontFamily=Helvetica;fontSize=11;fontColor=default;" vertex="1" parent="1">
          <mxGeometry x="1390" y="-15" width="120" height="60" as="geometry" />
        </mxCell>
        <mxCell id="jqzSuIZmgAgGuRS0_Z6t-364" value="WritingNumber" style="ellipse;whiteSpace=wrap;html=1;align=center;fontStyle=4;fontFamily=Helvetica;fontSize=11;fontColor=default;" vertex="1" parent="1">
          <mxGeometry x="1760" y="95" width="100" height="40" as="geometry" />
        </mxCell>
        <mxCell id="jqzSuIZmgAgGuRS0_Z6t-366" value="CompanyCode" style="whiteSpace=wrap;html=1;align=center;fontFamily=Helvetica;fontSize=11;fontColor=default;" vertex="1" parent="1">
          <mxGeometry x="1250" y="-5" width="100" height="40" as="geometry" />
        </mxCell>
        <mxCell id="jqzSuIZmgAgGuRS0_Z6t-368" style="edgeStyle=none;shape=connector;rounded=0;orthogonalLoop=1;jettySize=auto;html=1;exitX=0.5;exitY=1;exitDx=0;exitDy=0;entryX=0.5;entryY=0;entryDx=0;entryDy=0;labelBackgroundColor=default;strokeColor=default;align=center;verticalAlign=middle;fontFamily=Helvetica;fontSize=11;fontColor=default;endArrow=none;endFill=0;" edge="1" parent="1" source="jqzSuIZmgAgGuRS0_Z6t-367" target="jqzSuIZmgAgGuRS0_Z6t-366">
          <mxGeometry relative="1" as="geometry" />
        </mxCell>
        <mxCell id="jqzSuIZmgAgGuRS0_Z6t-367" value="CompanyCode" style="ellipse;whiteSpace=wrap;html=1;align=center;fontStyle=4;fontFamily=Helvetica;fontSize=11;fontColor=default;" vertex="1" parent="1">
          <mxGeometry x="1250" y="-65" width="100" height="40" as="geometry" />
        </mxCell>
        <mxCell id="jqzSuIZmgAgGuRS0_Z6t-370" style="edgeStyle=none;shape=connector;rounded=0;orthogonalLoop=1;jettySize=auto;html=1;exitX=0;exitY=0.5;exitDx=0;exitDy=0;entryX=1;entryY=0.5;entryDx=0;entryDy=0;labelBackgroundColor=default;strokeColor=default;align=center;verticalAlign=middle;fontFamily=Helvetica;fontSize=11;fontColor=default;endArrow=none;endFill=0;" edge="1" parent="1" source="jqzSuIZmgAgGuRS0_Z6t-369" target="jqzSuIZmgAgGuRS0_Z6t-109">
          <mxGeometry relative="1" as="geometry" />
        </mxCell>
        <mxCell id="jqzSuIZmgAgGuRS0_Z6t-371" style="edgeStyle=none;shape=connector;rounded=0;orthogonalLoop=1;jettySize=auto;html=1;exitX=1;exitY=0.5;exitDx=0;exitDy=0;entryX=0;entryY=0;entryDx=0;entryDy=0;labelBackgroundColor=default;strokeColor=default;align=center;verticalAlign=middle;fontFamily=Helvetica;fontSize=11;fontColor=default;endArrow=none;endFill=0;" edge="1" parent="1" source="jqzSuIZmgAgGuRS0_Z6t-369" target="jqzSuIZmgAgGuRS0_Z6t-366">
          <mxGeometry relative="1" as="geometry" />
        </mxCell>
        <mxCell id="jqzSuIZmgAgGuRS0_Z6t-369" value="HasAccount" style="shape=rhombus;perimeter=rhombusPerimeter;whiteSpace=wrap;html=1;align=center;fontFamily=Helvetica;fontSize=11;fontColor=default;" vertex="1" parent="1">
          <mxGeometry x="960" y="-275" width="120" height="60" as="geometry" />
        </mxCell>
        <mxCell id="jqzSuIZmgAgGuRS0_Z6t-374" value="MangeWN" style="shape=rhombus;perimeter=rhombusPerimeter;whiteSpace=wrap;html=1;align=center;fontFamily=Helvetica;fontSize=11;fontColor=default;" vertex="1" parent="1">
          <mxGeometry x="1620" width="120" height="60" as="geometry" />
        </mxCell>
        <mxCell id="jqzSuIZmgAgGuRS0_Z6t-376" style="edgeStyle=none;shape=connector;rounded=0;orthogonalLoop=1;jettySize=auto;html=1;exitX=0.5;exitY=1;exitDx=0;exitDy=0;entryX=0.414;entryY=0.01;entryDx=0;entryDy=0;entryPerimeter=0;labelBackgroundColor=default;strokeColor=default;align=center;verticalAlign=middle;fontFamily=Helvetica;fontSize=11;fontColor=default;endArrow=none;endFill=0;" edge="1" parent="1" source="jqzSuIZmgAgGuRS0_Z6t-374" target="jqzSuIZmgAgGuRS0_Z6t-360">
          <mxGeometry relative="1" as="geometry" />
        </mxCell>
        <mxCell id="jqzSuIZmgAgGuRS0_Z6t-380" style="edgeStyle=none;shape=connector;rounded=0;orthogonalLoop=1;jettySize=auto;html=1;exitX=1;exitY=0.5;exitDx=0;exitDy=0;entryX=0;entryY=0.5;entryDx=0;entryDy=0;labelBackgroundColor=default;strokeColor=default;align=center;verticalAlign=middle;fontFamily=Helvetica;fontSize=11;fontColor=default;endArrow=none;endFill=0;" edge="1" parent="1" source="jqzSuIZmgAgGuRS0_Z6t-377" target="jqzSuIZmgAgGuRS0_Z6t-379">
          <mxGeometry relative="1" as="geometry" />
        </mxCell>
        <mxCell id="jqzSuIZmgAgGuRS0_Z6t-377" value="hasLicense" style="shape=rhombus;perimeter=rhombusPerimeter;whiteSpace=wrap;html=1;align=center;fontFamily=Helvetica;fontSize=11;fontColor=default;" vertex="1" parent="1">
          <mxGeometry x="510" y="340" width="120" height="60" as="geometry" />
        </mxCell>
        <mxCell id="jqzSuIZmgAgGuRS0_Z6t-382" style="edgeStyle=none;shape=connector;rounded=0;orthogonalLoop=1;jettySize=auto;html=1;exitX=0.5;exitY=1;exitDx=0;exitDy=0;entryX=0.5;entryY=0;entryDx=0;entryDy=0;labelBackgroundColor=default;strokeColor=default;align=center;verticalAlign=middle;fontFamily=Helvetica;fontSize=11;fontColor=default;endArrow=none;endFill=0;" edge="1" parent="1" source="jqzSuIZmgAgGuRS0_Z6t-379" target="jqzSuIZmgAgGuRS0_Z6t-381">
          <mxGeometry relative="1" as="geometry" />
        </mxCell>
        <mxCell id="jqzSuIZmgAgGuRS0_Z6t-384" style="edgeStyle=none;shape=connector;rounded=0;orthogonalLoop=1;jettySize=auto;html=1;exitX=0.5;exitY=1;exitDx=0;exitDy=0;labelBackgroundColor=default;strokeColor=default;align=center;verticalAlign=middle;fontFamily=Helvetica;fontSize=11;fontColor=default;endArrow=none;endFill=0;" edge="1" parent="1" source="jqzSuIZmgAgGuRS0_Z6t-379" target="jqzSuIZmgAgGuRS0_Z6t-383">
          <mxGeometry relative="1" as="geometry" />
        </mxCell>
        <mxCell id="jqzSuIZmgAgGuRS0_Z6t-379" value="License" style="shape=ext;margin=3;double=1;whiteSpace=wrap;html=1;align=center;fontFamily=Helvetica;fontSize=11;fontColor=default;" vertex="1" parent="1">
          <mxGeometry x="837.5" y="350" width="100" height="40" as="geometry" />
        </mxCell>
        <mxCell id="jqzSuIZmgAgGuRS0_Z6t-381" value="LincesState" style="ellipse;whiteSpace=wrap;html=1;align=center;fontStyle=4;fontFamily=Helvetica;fontSize=11;fontColor=default;" vertex="1" parent="1">
          <mxGeometry x="787.5" y="410" width="100" height="40" as="geometry" />
        </mxCell>
        <mxCell id="jqzSuIZmgAgGuRS0_Z6t-383" value="LicenseNumber" style="ellipse;whiteSpace=wrap;html=1;align=center;fontStyle=4;fontFamily=Helvetica;fontSize=11;fontColor=default;" vertex="1" parent="1">
          <mxGeometry x="907.5" y="410" width="100" height="40" as="geometry" />
        </mxCell>
        <mxCell id="jqzSuIZmgAgGuRS0_Z6t-387" style="edgeStyle=none;shape=connector;rounded=0;orthogonalLoop=1;jettySize=auto;html=1;exitX=1;exitY=0.5;exitDx=0;exitDy=0;entryX=0;entryY=1;entryDx=0;entryDy=0;labelBackgroundColor=default;strokeColor=default;align=center;verticalAlign=middle;fontFamily=Helvetica;fontSize=11;fontColor=default;endArrow=none;endFill=0;" edge="1" parent="1" source="jqzSuIZmgAgGuRS0_Z6t-385" target="jqzSuIZmgAgGuRS0_Z6t-360">
          <mxGeometry relative="1" as="geometry" />
        </mxCell>
        <mxCell id="jqzSuIZmgAgGuRS0_Z6t-385" value="License_WritingNumber" style="shape=rhombus;perimeter=rhombusPerimeter;whiteSpace=wrap;html=1;align=center;fontFamily=Helvetica;fontSize=11;fontColor=default;" vertex="1" parent="1">
          <mxGeometry x="1120" y="145" width="170" height="60" as="geometry" />
        </mxCell>
        <mxCell id="jqzSuIZmgAgGuRS0_Z6t-386" style="edgeStyle=none;shape=connector;rounded=0;orthogonalLoop=1;jettySize=auto;html=1;exitX=1;exitY=0;exitDx=0;exitDy=0;entryX=0;entryY=0.5;entryDx=0;entryDy=0;labelBackgroundColor=default;strokeColor=default;align=center;verticalAlign=middle;fontFamily=Helvetica;fontSize=11;fontColor=default;endArrow=none;endFill=0;" edge="1" parent="1" source="jqzSuIZmgAgGuRS0_Z6t-379" target="jqzSuIZmgAgGuRS0_Z6t-385">
          <mxGeometry relative="1" as="geometry" />
        </mxCell>
        <mxCell id="jqzSuIZmgAgGuRS0_Z6t-389" style="edgeStyle=none;shape=connector;rounded=0;orthogonalLoop=1;jettySize=auto;html=1;exitX=0.5;exitY=0;exitDx=0;exitDy=0;labelBackgroundColor=default;strokeColor=default;align=center;verticalAlign=middle;fontFamily=Helvetica;fontSize=11;fontColor=default;endArrow=none;endFill=0;" edge="1" parent="1" source="jqzSuIZmgAgGuRS0_Z6t-112" target="jqzSuIZmgAgGuRS0_Z6t-112">
          <mxGeometry relative="1" as="geometry" />
        </mxCell>
        <mxCell id="jqzSuIZmgAgGuRS0_Z6t-391" style="edgeStyle=orthogonalEdgeStyle;shape=connector;rounded=0;orthogonalLoop=1;jettySize=auto;html=1;exitX=0;exitY=0.5;exitDx=0;exitDy=0;entryX=0.75;entryY=0;entryDx=0;entryDy=0;labelBackgroundColor=default;strokeColor=default;align=center;verticalAlign=middle;fontFamily=Helvetica;fontSize=11;fontColor=default;endArrow=none;endFill=0;" edge="1" parent="1" source="jqzSuIZmgAgGuRS0_Z6t-390" target="jqzSuIZmgAgGuRS0_Z6t-83">
          <mxGeometry relative="1" as="geometry" />
        </mxCell>
        <mxCell id="jqzSuIZmgAgGuRS0_Z6t-390" value="Account_to_Contract" style="shape=rhombus;perimeter=rhombusPerimeter;whiteSpace=wrap;html=1;align=center;fontFamily=Helvetica;fontSize=11;fontColor=default;" vertex="1" parent="1">
          <mxGeometry x="1400" y="510" width="120" height="60" as="geometry" />
        </mxCell>
        <mxCell id="jqzSuIZmgAgGuRS0_Z6t-397" style="edgeStyle=none;shape=connector;rounded=0;orthogonalLoop=1;jettySize=auto;html=1;exitX=1;exitY=0.5;exitDx=0;exitDy=0;entryX=0;entryY=0.5;entryDx=0;entryDy=0;labelBackgroundColor=default;strokeColor=default;align=center;verticalAlign=middle;fontFamily=Helvetica;fontSize=11;fontColor=default;endArrow=none;endFill=0;" edge="1" parent="1" source="jqzSuIZmgAgGuRS0_Z6t-393" target="jqzSuIZmgAgGuRS0_Z6t-396">
          <mxGeometry relative="1" as="geometry" />
        </mxCell>
        <mxCell id="jqzSuIZmgAgGuRS0_Z6t-403" style="edgeStyle=orthogonalEdgeStyle;shape=connector;rounded=0;orthogonalLoop=1;jettySize=auto;html=1;exitX=0;exitY=0.5;exitDx=0;exitDy=0;entryX=0.5;entryY=0;entryDx=0;entryDy=0;labelBackgroundColor=default;strokeColor=default;align=center;verticalAlign=middle;fontFamily=Helvetica;fontSize=11;fontColor=default;endArrow=none;endFill=0;" edge="1" parent="1" source="jqzSuIZmgAgGuRS0_Z6t-393" target="jqzSuIZmgAgGuRS0_Z6t-402">
          <mxGeometry relative="1" as="geometry" />
        </mxCell>
        <mxCell id="jqzSuIZmgAgGuRS0_Z6t-393" value="ContractPremium" style="whiteSpace=wrap;html=1;align=center;fontFamily=Helvetica;fontSize=11;fontColor=default;" vertex="1" parent="1">
          <mxGeometry x="690" y="790" width="100" height="40" as="geometry" />
        </mxCell>
        <mxCell id="jqzSuIZmgAgGuRS0_Z6t-395" style="edgeStyle=none;shape=connector;rounded=0;orthogonalLoop=1;jettySize=auto;html=1;exitX=0.5;exitY=1;exitDx=0;exitDy=0;entryX=0.5;entryY=0;entryDx=0;entryDy=0;labelBackgroundColor=default;strokeColor=default;align=center;verticalAlign=middle;fontFamily=Helvetica;fontSize=11;fontColor=default;endArrow=none;endFill=0;" edge="1" parent="1" source="jqzSuIZmgAgGuRS0_Z6t-394" target="jqzSuIZmgAgGuRS0_Z6t-393">
          <mxGeometry relative="1" as="geometry" />
        </mxCell>
        <mxCell id="jqzSuIZmgAgGuRS0_Z6t-394" value="PremiumCode" style="ellipse;whiteSpace=wrap;html=1;align=center;fontStyle=4;fontFamily=Helvetica;fontSize=11;fontColor=default;" vertex="1" parent="1">
          <mxGeometry x="690" y="730" width="100" height="40" as="geometry" />
        </mxCell>
        <mxCell id="jqzSuIZmgAgGuRS0_Z6t-398" style="edgeStyle=orthogonalEdgeStyle;shape=connector;rounded=0;orthogonalLoop=1;jettySize=auto;html=1;exitX=1;exitY=0.5;exitDx=0;exitDy=0;entryX=0.25;entryY=0;entryDx=0;entryDy=0;labelBackgroundColor=default;strokeColor=default;align=center;verticalAlign=middle;fontFamily=Helvetica;fontSize=11;fontColor=default;endArrow=none;endFill=0;" edge="1" parent="1" source="jqzSuIZmgAgGuRS0_Z6t-396" target="jqzSuIZmgAgGuRS0_Z6t-83">
          <mxGeometry relative="1" as="geometry" />
        </mxCell>
        <mxCell id="jqzSuIZmgAgGuRS0_Z6t-396" value="ContractBenfit" style="shape=rhombus;perimeter=rhombusPerimeter;whiteSpace=wrap;html=1;align=center;fontFamily=Helvetica;fontSize=11;fontColor=default;" vertex="1" parent="1">
          <mxGeometry x="860" y="780" width="120" height="60" as="geometry" />
        </mxCell>
        <mxCell id="jqzSuIZmgAgGuRS0_Z6t-401" style="edgeStyle=none;shape=connector;rounded=0;orthogonalLoop=1;jettySize=auto;html=1;exitX=0;exitY=0.5;exitDx=0;exitDy=0;entryX=1;entryY=0;entryDx=0;entryDy=0;labelBackgroundColor=default;strokeColor=default;align=center;verticalAlign=middle;fontFamily=Helvetica;fontSize=11;fontColor=default;endArrow=none;endFill=0;" edge="1" parent="1" source="jqzSuIZmgAgGuRS0_Z6t-399" target="jqzSuIZmgAgGuRS0_Z6t-393">
          <mxGeometry relative="1" as="geometry" />
        </mxCell>
        <mxCell id="jqzSuIZmgAgGuRS0_Z6t-399" value="Premium_MgmtContract" style="shape=rhombus;perimeter=rhombusPerimeter;whiteSpace=wrap;html=1;align=center;fontFamily=Helvetica;fontSize=11;fontColor=default;" vertex="1" parent="1">
          <mxGeometry x="1160" y="330" width="140" height="60" as="geometry" />
        </mxCell>
        <mxCell id="jqzSuIZmgAgGuRS0_Z6t-402" value="BenfitforBenefitingParty" style="shape=rhombus;perimeter=rhombusPerimeter;whiteSpace=wrap;html=1;align=center;fontFamily=Helvetica;fontSize=11;fontColor=default;" vertex="1" parent="1">
          <mxGeometry x="465" y="1160" width="155" height="60" as="geometry" />
        </mxCell>
      </root>
    </mxGraphModel>
  </diagram>
</mxfile>
